<?xml version="1.0" encoding="UTF-8"?> <svg xmlns="http://www.w3.org/2000/svg" xmlns:xlink="http://www.w3.org/1999/xlink" xmlns:v="https://vecta.io/nano" width="802" height="603" fill="none"><style><![CDATA[.B{fill:#000}.C{fill-rule:evenodd}.D{fill:#fff}.E{fill:#d8d3da}.F{fill:#ffc28f}.G{fill:#bdcbff}.H{fill:#eae1ff}]]></style><path d="M125.12 545.974l-9.502 56.102H81.2l-9.502-56.102h53.422z" class="D"></path><path d="M81.2 602.818h34.42a.74.74 0 0 0 .731-.618l9.502-56.102a.76.76 0 0 0-.163-.604.75.75 0 0 0-.568-.262H71.697a.74.74 0 0 0-.732.866l9.502 56.102a.74.74 0 0 0 .732.618zm33.79-1.483H81.827l-9.25-54.62h51.668L115 601.335z" class="C E"></path><path d="M90.938 545.974l-16.394 16.8 16.394-16.8z" class="D"></path><path d="M74.555 563.515c-.3-.001-.568-.18-.683-.455a.74.74 0 0 1 .154-.806l16.4-16.81a.74.74 0 0 1 .724-.219c.263.065.47.268.54.53a.74.74 0 0 1-.205.728l-16.394 16.81c-.14.142-.333.223-.534.223z" class="E"></path><path d="M77.338 579.27l36.14-33.296-36.14 33.296z" class="D"></path><path d="M77.333 580.012a.74.74 0 0 1-.494-1.29l36.14-33.292a.74.74 0 0 1 1.298.352.74.74 0 0 1-.31.736l-36.14 33.296a.73.73 0 0 1-.494.198z" class="E"></path><path d="M80.546 596.786l42.3-37.36-42.3 37.36z" class="D"></path><path d="M80.546 597.523a.75.75 0 0 1-.559-.247c-.13-.148-.197-.34-.185-.538a.74.74 0 0 1 .25-.51l42.3-37.36c.307-.273.777-.245 1.05.062s.246.778-.06 1.05l-42.3 37.36a.75.75 0 0 1-.494.183z" class="E"></path><path d="M118.97 580.3L95.05 602.076 118.97 580.3z" class="D"></path><path d="M95.05 602.818a.74.74 0 0 1-.494-1.291l23.918-21.777a.74.74 0 0 1 1.273.372.74.74 0 0 1-.284.725L95.546 602.6a.75.75 0 0 1-.494.218z" class="E"></path><path d="M106.29 566.955l12.68 12.315-12.68-12.315z" class="D"></path><path d="M118.97 580.012c-.186-.005-.363-.08-.495-.213l-12.68-12.315a.74.74 0 0 1 .305-1.263.74.74 0 0 1 .729.201l12.68 12.315a.74.74 0 0 1 0 1.048.75.75 0 0 1-.538.227z" class="E"></path><path d="M84.684 545.974l18.786 18.243-18.786-18.243z" class="D"></path><path d="M103.47 564.973a.73.73 0 0 1-.494-.208L84.2 546.523c-.295-.286-.303-.756-.017-1.05s.756-.302 1.05-.017l18.786 18.247a.74.74 0 0 1-.519 1.271h-.02z" class="E"></path><path d="M73.244 555.125l43.352 41.182-43.352-41.182z" class="D"></path><path d="M116.577 597.048a.76.76 0 0 1-.495-.202l-43.347-41.182c-.298-.283-.3-.753-.027-1.05s.753-.3 1.05-.027l43.347 41.182a.74.74 0 0 1-.495 1.28h-.034z" class="E"></path><path d="M77.748 578.9l27.364 23.186L77.748 578.9z" class="D"></path><path d="M105.112 602.818c-.18.003-.357-.06-.494-.178l-27.37-23.182a.74.74 0 0 1 .959-1.132l27.37 23.182c.24.202.33.535.218.83s-.398.488-.713.48h.03z" class="E"></path><path d="M106.956 546.142l15.89 13.284-15.89-13.284z" class="D"></path><g class="E"><path d="M122.84 560.168c-.18.003-.356-.058-.494-.173l-15.89-13.29c-.314-.264-.355-.732-.092-1.046a.74.74 0 0 1 1.046-.091l15.89 13.288c.242.203.33.536.218.83s-.397.487-.712.48h.034z"></path><path d="M128.076 546.716h-59.25a.742.742 0 0 1 0-1.484h59.25a.742.742 0 0 1 0 1.484zm-27.36 23.226c-.128-.001-.25-.05-.34-.14l-1.518-1.43c-.2-.187-.2-.5-.022-.7s.5-.2.7-.022l1.518 1.433c.192.193.192.505 0 .697a.5.5 0 0 1-.336.16zm-1.517.756a.49.49 0 0 1-.341-.134l-1.033-.988c-.175-.2-.173-.485.005-.674s.47-.207.672-.043l1.033 1a.5.5 0 0 1 .16.345c.006.13-.044.26-.134.357a.5.5 0 0 1-.361.148zm-.322 1.824a.49.49 0 0 1-.34-.133l-2.5-2.364c-.2-.187-.2-.5-.022-.7s.5-.2.7-.022l2.506 2.363a.49.49 0 0 1 .12.544c-.077.19-.26.312-.463.3z"></path></g><path d="M607.324 134.384h39.096v54.253h-39.096z" class="D"></path><path d="M607.324 189.374h39.09a.74.74 0 0 0 .741-.757V134.37a.74.74 0 0 0-.741-.742h-39.09a.74.74 0 0 0-.741.742v54.263a.74.74 0 0 0 .741.742zm38.35-1.484h-37.607v-52.765h37.607V187.9z" class="C E"></path><path d="M617.098 147.945h19.548v27.127h-19.548z" class="D"></path><g class="E"><path d="M617.108 175.813h19.533a.74.74 0 0 0 .53-.214c.142-.14.22-.33.22-.528v-27.126a.74.74 0 0 0-.741-.742h-19.543a.74.74 0 0 0-.742.742v27.126a.74.74 0 0 0 .742.742zm18.786-1.483h-18.04l-.02-25.624h18.06v25.624z" class="C"></path><path d="M626.63 175.06a.74.74 0 0 1-.742-.741v-26.375a.74.74 0 1 1 1.483 0v26.375a.74.74 0 0 1-.741.741z"></path><path d="M626.63 159.582a.74.74 0 0 1-.58-.282l-4.064-5.12c-.178-.206-.23-.494-.133-.75a.74.74 0 0 1 1.295-.171l4.064 5.122a.74.74 0 0 1-.583 1.201zm0 8.82a.76.76 0 0 1-.44-.143.74.74 0 0 1-.291-.488.73.73 0 0 1 .138-.55l5.082-6.92a.75.75 0 0 1 .69-.33c.273.025.5.2.614.454a.74.74 0 0 1-.111.755l-5.082 6.897c-.134.2-.358.322-.6.326z"></path><path d="M632.636 163.884h-2.674a.742.742 0 1 1 0-1.484h2.674a.742.742 0 1 1 0 1.484zm-6.006-10.466a.73.73 0 0 1-.554-.253.74.74 0 0 1 .064-1.048l1.78-1.557c.2-.177.476-.234.73-.15a.74.74 0 0 1 .494.556c.054.26-.036.53-.234.706l-1.78 1.563a.74.74 0 0 1-.499.183zm-4.124 15.755a.49.49 0 0 1-.306-.109l-1.285-1.018c-.156-.103-.24-.285-.218-.47s.147-.342.323-.406.372-.022.508.106l1.285 1.018c.212.17.247.48.08.692-.093.118-.235.187-.386.188zm1.286-1.567a.5.5 0 0 1-.297-.099l-3.782-2.902a.5.5 0 0 1-.09-.697c.167-.215.477-.255.693-.1l3.777 2.902c.166.13.233.35.164.55s-.255.334-.466.335z"></path></g><path d="M303.05 81.563h86.08v97.06h-86.08z" class="D"></path><path d="M303.05 179.366h86.08a.74.74 0 0 0 .742-.741V81.563a.74.74 0 0 0-.742-.742h-86.08a.74.74 0 0 0-.742.742v97.062a.74.74 0 0 0 .742.741zm85.34-1.483H303.8V82.305h84.598v95.578z" class="C E"></path><path d="M320.125 100.864h51.93v58.554h-51.93z" class="D"></path><g class="E"><path d="M320.144 160.16h51.9a.74.74 0 0 0 .742-.742v-58.554a.74.74 0 0 0-.742-.742h-51.9a.74.74 0 0 0-.741.742v58.554a.74.74 0 0 0 .741.742zm51.15-1.483h-50.427v-57.072h50.427v57.072z" class="C"></path><path d="M356.892 153.58c-.215 0-.42-.094-.56-.257-11.42-13.125-15.242-34.606-15.276-34.824a.74.74 0 0 1 .992-.863.74.74 0 0 1 .466.611c.04.208 3.792 21.293 14.935 34.112a.74.74 0 0 1 .181.54c-.014.196-.106.38-.255.508-.135.116-.307.177-.484.173z"></path><path d="M345.733 133.364h-.074c-6.303-.618-9.235-4.528-9.358-4.7a.74.74 0 0 1 .502-1.209.74.74 0 0 1 .689.329c.03.034 2.7 3.544 8.316 4.098a.74.74 0 1 1-.075 1.484v-.01zm-.483 10.566c-4.365 0-6.654-1.72-6.778-1.82-.32-.252-.38-.714-.133-1.038a.74.74 0 0 1 1.038-.134c.06.045 3.644 2.66 10.47.88.4-.086.777.15.88.536a.74.74 0 0 1-.503.898 19.44 19.44 0 0 1-4.974.677zm-1.533-16.795c-.4.027-.764-.282-.8-.692a.74.74 0 0 1 .692-.791c.07 0 3.238-.564 5.823-6.017a.74.74 0 0 1 .612-.45.74.74 0 0 1 .728 1.084c-2.966 6.3-6.807 6.833-6.97 6.852l-.093.015zm4.637 12.68a.74.74 0 0 1-.371-1.384c5.488-3.154 5.2-9.888 5.2-9.952a.74.74 0 1 1 1.482-.079c0 .3.35 7.697-5.933 11.316-.114.07-.246.103-.38.1z"></path><path d="M353.738 134.76c-.352.007-.704-.026-1.05-.1-.19-.044-.358-.162-.46-.33a.73.73 0 0 1-.087-.56c.095-.397.49-.643.9-.554.118.03 2.71.57 5.373-2.056a.74.74 0 0 1 .727-.21c.263.07.467.275.533.538a.74.74 0 0 1-.216.725c-2.2 2.15-4.44 2.546-5.7 2.546z"></path><path d="M338.295 116.4a3.02 3.02 0 0 0 3.004 2.752 2.82 2.82 0 0 0 .781-.104 3.02 3.02 0 0 0 2.131-3.698c-.407-1.5-1.9-2.457-3.44-2.183s-2.614 1.677-2.477 3.233zm2.604-1.747a1.59 1.59 0 0 1 .4-.049 1.55 1.55 0 0 1 1.533 1.458 1.55 1.55 0 0 1-1.356 1.625 1.55 1.55 0 0 1-1.71-1.247c-.153-.8.342-1.582 1.132-1.787zm-6.89 25.9c.133 1.556 1.432 2.753 2.994 2.758a3.06 3.06 0 0 0 .791-.104c1.607-.436 2.56-2.1 2.13-3.698-.407-1.507-1.898-2.455-3.436-2.183s-2.614 1.67-2.48 3.227zm2.594-1.74c.13-.035.265-.053.4-.054h.01a1.5 1.5 0 0 1 .75.208 1.52 1.52 0 0 1 .717.929 1.54 1.54 0 0 1-1.082 1.879c-.6.163-1.238-.052-1.617-.543s-.424-1.164-.114-1.702a1.53 1.53 0 0 1 .935-.717zm21.203-8.61a3.02 3.02 0 0 0 3.01 2.757c.267-.001.533-.035.8-.104a3.02 3.02 0 0 0 1.83-1.408c.4-.693.505-1.518.297-2.3a3.02 3.02 0 0 0-5.927 1.045zm2.6-1.742a1.55 1.55 0 0 1 .401-.054h-.005c.695-.003 1.305.464 1.483 1.137a1.54 1.54 0 0 1-.153 1.162 1.53 1.53 0 0 1-.93.716c-.393.112-.816.057-1.167-.153-.537-.3-.834-.913-.753-1.528a1.53 1.53 0 0 1 1.124-1.28zm-10.11-2.046c.134 1.556 1.433 2.753 2.994 2.758a3.06 3.06 0 0 0 .791-.104c1.607-.436 2.56-2.1 2.13-3.698-.407-1.507-1.897-2.455-3.435-2.184s-2.614 1.672-2.48 3.228zm2.6-1.74a1.55 1.55 0 0 1 .396-.049h.004a1.54 1.54 0 0 1 1.484 1.132c.22.82-.264 1.662-1.083 1.883s-1.662-.263-1.884-1.082a1.54 1.54 0 0 1 1.083-1.884zm-5.764-6.814c.136 1.556 1.437 2.752 3 2.754a3.09 3.09 0 0 0 .79-.103c.773-.2 1.43-.716 1.83-1.4a3.01 3.01 0 0 0 .297-2.289c-.407-1.5-1.9-2.456-3.437-2.184a3.02 3.02 0 0 0-2.48 3.23zm2.6-1.745c.13-.035.265-.053.4-.054a1.5 1.5 0 0 1 .762.208c.353.2.6.536.717.93s.05.8-.154 1.162a1.48 1.48 0 0 1-.93.717 1.52 1.52 0 0 1-1.879-1.084c-.108-.4-.055-.8.15-1.162s.54-.6.934-.717zm-17.876 11.072c.137 1.557 1.44 2.75 3.004 2.75.265 0 .53-.035.786-.104a3.02 3.02 0 0 0 1.83-1.408c.4-.693.505-1.517.297-2.3-.408-1.5-1.9-2.457-3.44-2.184s-2.614 1.677-2.477 3.234zm2.603-1.748c.13-.035.265-.053.4-.054.807-.002 1.477.622 1.533 1.427a1.53 1.53 0 0 1-1.323 1.624c-.8.108-1.547-.422-1.708-1.212s.32-1.572 1.097-1.785z" class="C"></path><path d="M328.9 118.652c1.24 0 1.24-1.928 0-1.928s-1.24 1.928 0 1.928zm-1.196 24.714c1.24 0 1.245-1.928 0-1.928s-1.24 1.928 0 1.928zm34.843-23.978c1.24 0 1.24-1.928 0-1.928s-1.24 1.928 0 1.928zm1.933 19.192c1.24 0 1.246-1.928 0-1.928s-1.24 1.928 0 1.928zm-25.213-29.574c1.24 0 1.24-1.928 0-1.928s-1.246 1.928 0 1.928zm-8.957 50.907c-.273 0-.495-.222-.495-.495v-3.184c0-.273.222-.494.495-.494s.494.22.494.494v3.184c0 .273-.22.495-.494.495zm3.375-.001c-.273 0-.494-.22-.494-.494v-8.226c0-.273.22-.495.494-.495s.495.222.495.495v8.226c0 .273-.222.494-.495.494z"></path></g><path d="M266.8 587.062c-5.34-9.32-15.202-22.8-15.528-23.236 1.226-5.814 5.77-10.65 5.77-10.65s4.37 17.827 12.083 15.326l.207-.07a18.4 18.4 0 0 1 2.008-1.024l.168-.07c1.22-.5 2.724-.984 3.955-.85.145.012.288.036.43.07a2.22 2.22 0 0 1 1.26.766c1.978 2.447 9.438 21.486 10.877 25.9.133.384.133.802 0 1.186l-.06.16a1.01 1.01 0 0 1-.059.113c-1.83 3.278-15.672 2.54-20.12-5.794a47.67 47.67 0 0 0-.989-1.819zm61.383 9.958h31.512c-.047-.654-.23-1.3-.54-1.87L352.1 582.5c-.173-.272-.44-.47-.75-.56l-.44-.163c-4.445-1.807-9.406-1.88-13.902-.203-.307.124-.465.203-.465.203a.94.94 0 0 0-.816.494l-6.995 12.904a4.61 4.61 0 0 0-.549 1.854z" fill="#d5dcef"></path><path d="M355.824 564.063c-.865.213-1.8.386-2.75.524-5.838.846-13.06.416-17.06.06-1.863-.168-3.025-.322-3.025-.322l-4.5-223.404s-5.008 80.85-10.22 111.156c-.783 4.536-2.304 8.913-4.504 12.957-7.282 13.433-26.8 51.035-38.368 85.637l-1.24-.495-13.76-5.3-.885-.34c3.802-52.17 30.7-93.6 30.7-93.6-8.36-132.76 8.24-149.303 8.24-149.303h58.86s16.058 25.708-.647 155.265c-1.236 30.498 2.2 63.157-.846 107.156z" fill="#a89fdb" class="C"></path><g fill="#ffd87a"><path d="M327.086 209.35c13.625 0 19.988-6.847 21.867-9.32l-1.68-.464c-.66-.185-2-.53-3.255-.853l-.26-.067-2.087-.524-.306-.08c-.242.326-4.232 5.507-14.12 5.507-9.086 0-13.664-5.507-13.664-5.507l-.205.05-.35.088-.628.154-.217.054-.41.104a1.22 1.22 0 0 0-.178.044l-.123.03-.272.064c-1.058.262-2.215.57-3.46.915l-1.142.32c1.706 2.264 8.03 9.482 20.492 9.482z"></path><path d="M362.775 239.306s10.808-.326 17.68-6.753c-.524-7.02-1.65-12.88-3.594-16.32a21.11 21.11 0 0 0-6.773-7.485c-1.68-1.11-3.433-2.1-5.25-2.966h-.035l-.677-.316-.34-.15-1.033-.44-2.714-1.102a120.76 120.76 0 0 0-5.246-1.894c-2.047-.687-4.01-1.3-5.824-1.814-1.878 2.452-8.24 9.32-21.866 9.32-12.463 0-18.806-7.218-20.492-9.482-1.948.563-4.133 1.216-6.397 1.977-1.4.47-2.833.974-4.277 1.523a22.65 22.65 0 0 0-.988.371l-1.123.445-2.11.875-.415.183a42.13 42.13 0 0 0-4.128 2.076c-.338.204-.685.392-1.032.58a18.53 18.53 0 0 0-1.44.838c-3.03 1.96-5.66 4.475-7.752 7.416a19.01 19.01 0 0 0-3.277 9.467 75.93 75.93 0 0 0-.114 8.068c.687.425 7.495 4.45 18.292 5.582 1.77 7.966 3.61 28.586 4.988 44.01l1.88 18.365h58.603l5.458-62.376z"></path></g><g class="D"><use xlink:href="#B" style="mix-blend-mode:soft-light" opacity=".4"></use><use xlink:href="#B" style="mix-blend-mode:soft-light" opacity=".4"></use></g><path d="M307.375 199.29l.155.204c1.804 2.337 7.903 8.878 19.546 8.878 12.854 0 19.024-6.244 21.08-8.934a.99.99 0 0 1 1.058-.346c2.012.578 3.985 1.196 5.864 1.824a110.2 110.2 0 0 1 5.289 1.914 59.35 59.35 0 0 1 2.367.951l1.757.75.72.336.055.035c1.85.886 3.636 1.9 5.344 3.035a22.09 22.09 0 0 1 7.089 7.827c1.874 3.292 3.13 8.923 3.728 16.724a.99.99 0 0 1-.311.796c-5.987 5.616-14.674 6.75-17.452 6.966 0 .132-.013.257-.027.384a1.97 1.97 0 0 0-.008.08l-.108 1.286-5.2 59.426.105.2c.935 1.84 4.163 9.414 5.836 29.02 3.19 37.464-1.82 89.4-6.6 126.388-.446 11.164-.272 22.76-.02 34.942l.203 9.72c.366 18.3.597 38.853-1.03 62.44a.99.99 0 0 1-.752.889c-.865.213-1.82.396-2.842.544-2.467.332-4.953.503-7.442.512l-.622-.001c-3.385 0-6.57-.21-8.798-.398l-.447-.04a72.31 72.31 0 0 1-3.065-.326.99.99 0 0 1-.86-.954l-.048-1.94-4.016-198.748-.48 6.602c-1.947 26.334-5.053 63.606-8.2 81.98a42.95 42.95 0 0 1-4.389 12.844l-1.22 2.263c-6.95 12.967-25.873 49.476-37.304 83.63a.99.99 0 0 1-.494.583.99.99 0 0 1-.777.03l-1.24-.494-14.643-5.63a.99.99 0 0 1-.633-.989c3.614-49.6 28.328-90.04 30.68-93.784-7.895-125.82 6.535-147.335 8.384-149.54l-.047-.303c-.277-1.85-.635-5.467-1.076-10.286l-1.46-16.214c-1.19-13.028-2.62-27.41-4-34.158-10.435-1.24-17.12-5.108-17.972-5.627l-.024-.014a.99.99 0 0 1-.494-.846 77.07 77.07 0 0 1 .114-8.157 20.02 20.02 0 0 1 3.46-9.962 29.6 29.6 0 0 1 7.649-7.436l.38-.25a17.51 17.51 0 0 1 1.533-.895l.66-.36.33-.19a42.4 42.4 0 0 1 4.232-2.131l.42-.188 2.14-.89 1.137-.45.99-.376 4.306-1.533c2.002-.672 4.108-1.32 6.427-1.977a.99.99 0 0 1 1.063.361zm49.32 103.38H298.93l-.12.174c-1.047 1.57-4.28 7.6-6.768 24.743-4.944 34.22-3.198 85.948-.845 123.313a.99.99 0 0 1-.158.603l-.154.242c-2.176 3.467-26.557 43.236-30.335 92.163l14.238 5.472c12.118-35.822 32.2-73.92 38.107-84.815 2.15-3.95 3.636-8.225 4.4-12.656 4.73-27.513 9.352-97.715 10.1-109.395l.105-1.653a.99.99 0 0 1 1.009-.969.99.99 0 0 1 .967.935l.454 23.784 4.022 198.85.353.04 1.797.178.884.074c3.97.32 10.59.646 15.925-.13a27.11 27.11 0 0 0 1.953-.346c1.73-25.648 1.268-47.694.858-67.18l-.113-5.39c-.24-11.744-.388-22.94.05-33.8v-.09c15.326-118.81 2.966-150.143 1.033-154.148zm-56.245-99.864a135.98 135.98 0 0 1 5.715-1.78c2.24 2.77 8.82 9.334 20.863 9.334 12.713 0 19.386-5.797 22.086-8.984l.16-.192a137.12 137.12 0 0 1 5.151 1.622c1.86.623 3.56 1.236 5.2 1.874.95.37 1.824.726 2.694 1.097l.762.32.583.253.628.29.064.035a43.03 43.03 0 0 1 5.132 2.912 20.2 20.2 0 0 1 6.461 7.153c1.652 2.88 2.787 7.817 3.398 14.682l.063.743c-5.808 5.16-14.412 6.023-16.308 6.15l-.455.025a.99.99 0 0 0-.877.88l-.1 1.028-.052.655-.028.342-5.202 59.446h-27.26c-.9-3.11-1.43-7.367-1.602-8.905l-.06-.582c-.028-.273-.27-.473-.544-.445s-.473.27-.445.544c.001.007.002.02.004.037.054.52.55 5.283 1.53 9.004l.093.347h-28.57c-.236-1.532-.56-4.732-.95-8.813l-.842-8.93c-1.327-14.86-3.133-35.076-4.873-43.397l-.107-.494a.99.99 0 0 0-.86-.772c-8.72-.912-14.775-3.76-17.008-4.944l-.43-.232a73.96 73.96 0 0 1 .129-7.415 18.06 18.06 0 0 1 3.104-8.978c2.016-2.845 4.558-5.277 7.5-7.164l.045-.03.208-.133c.35-.22.7-.423 1.122-.633.356-.193.712-.385 1.063-.598a43.31 43.31 0 0 1 4.034-2.027l.146-.064c.08-.035.16-.07.244-.104a83.87 83.87 0 0 1 2.091-.87l1.118-.44c.31-.13.633-.247.954-.366 1.3-.494 2.7-.99 4.237-1.483z" class="B C"></path><path d="M351.513 157.185l.001.01a4.85 4.85 0 0 1 3.603.22c2.6 1.216 3.708 5.33 1.256 9.092-1.877 2.865-5.05 3.37-7.46 2.814l-.488 1.284-.307.766c-1.556 3.975-3.847 7.622-6.753 10.748a23.73 23.73 0 0 1-4.183 3.51c-2.732 1.853-5.94 2.883-9.24 2.966h-.988a17.22 17.22 0 0 1-3.67-.492c1.212.302 2.46.473 3.72.507h1a17.3 17.3 0 0 0 9.24-2.966 23.79 23.79 0 0 0 4.138-3.5v15.9c-.242.326-4.217 5.508-14.12 5.508-9.086 0-13.664-5.508-13.664-5.508v-15.857l-.05-.052c-2.908-3.128-5.2-6.776-6.758-10.753l-.306-.766-.222-.583-.265-.697c-2.4.55-5.57.04-7.443-2.818-2.472-3.763-1.345-7.876 1.246-9.107a4.85 4.85 0 0 1 3.618-.217 1.26 1.26 0 0 0 0 .123c0 .124.015.24.03.353l.016.142c.01.103.006.128.003.15a.82.82 0 0 0-.003.028c0 .06.015.167.026.247l.003.02a.97.97 0 0 0 .006.037c.01.074 0 .168 0 .168a1.94 1.94 0 0 0 .044.415l.12 1.024.128.95c0 .098.022.2.043.298l.017.078a13.24 13.24 0 0 0 .103.652l.16.905.03.153a14.72 14.72 0 0 0 .144.678c.027.1.05.226.074.34l.074.342c.033.133.053.224.072.312l.042.182a28.76 28.76 0 0 0 .178.687l.232.8.464 1.35-.42-1.38-.232-.8-.178-.687a7.18 7.18 0 0 1-.114-.495 6.87 6.87 0 0 0-.06-.27l-.1-.413c-.022-.116-.047-.227-.072-.34l-.07-.338-.03-.154-.158-.904c-.04-.2-.074-.43-.104-.653 0-.083-.018-.168-.036-.253-.008-.04-.017-.082-.023-.123l-.14-1.02-.1-.953a1.77 1.77 0 0 0-.022-.25c-.007-.056-.014-.1-.018-.167v-.168c0-.108 0-.173-.035-.3-.022-.078-.015-.107-.008-.138.004-.015.008-.03.008-.055 0-.047-.013-.168-.028-.302l-.02-.192v-.124c-.33-3.604-.836-14.065 3.4-20.922 5.132-8.3 13.54-10.743 20.665-10.624 7.115-.12 15.524 2.313 20.656 10.624 4.182 6.886 3.678 17.348 3.35 20.952zm-80 410.175c1.216-.5 2.72-.984 3.955-.85a15.42 15.42 0 0 1-1.898-3.575 13.81 13.81 0 0 1-.707-2.877 8.43 8.43 0 0 1 0-2.244l1.285-7.62-13.76-5.3c-.677 3.58-1.63 7.233-2.966 9.512 0 0 3.995 16.606 11.707 14.105a18.13 18.13 0 0 1 2.22-1.093l.163-.07zm94.727-215.274c-.227-.726-.507-1.616-.32-2.192 2.4-7.466 4.34-14.232 5.882-20.285 2.445-.97 1.563-2.838 1.563-2.838a2.61 2.61 0 0 0 1.804-2.081c.3-1.538-.558-2.814-1.333-3.6l.245-1.12a.8.8 0 0 0 .227-1.061c3.747-17.657 3.66-26.772 3.65-26.766 1.78-9.64 4-39.6 2.472-59.572-6.872 6.44-17.68 6.753-17.68 6.753-.003.355-.026 1.147-.05 1.998l-.063 2.698-.06 8.826-.064 35.283c.032 1.433-.135 2.864-.494 4.252-.757 2.857-2.185 8.74-3.782 17.688l-.1.62a308.53 308.53 0 0 0-9.5-.244 3.16 3.16 0 0 1-.94-.158 3.12 3.12 0 0 1-.772-.376c-.894-.608-1.898-1.26-2.966-1.943l-3.497-2.2-6.4-4.077-.732-.495c-15.4-10.2-34.874-21.836-34.874-21.836-.397-1.585-1.072-6.188-1.92-11.966-1.3-8.806-2.98-20.342-4.7-28.08-10.788-1.132-17.595-5.156-18.292-5.582 0 28.793 11.534 61.05 16.542 63.642l.3.156a256.73 256.73 0 0 0 8.055 4.031l.272.13c11.05 5.3 30.83 14.075 40.044 18.143l4.48 1.983a3.11 3.11 0 0 1 .885.583c1.423 1.342 6.5 6.05 10.888 9.13l-.105.852c-.63 5.082-1.217 10.634-1.76 16.655a4.07 4.07 0 0 1-.495 1.612c-1.354 2.437-5.57 10.44-5.542 15.538 0 0 .262 10.03.8 12.607s2.868 7.045 4.988 7.277c0 0 1.42-.455-.494-7.806-.134-.513-.192-1.042-.173-1.572l.232-6.605c-.04 2.447.08 9.037 2.55 10.476 1.993 1.167 3.362-.02 3.718-1.256 0 0 2.98 1.305 4.415-1.66 0 0 3.1-.42 3.955-4.45 1.177-5.626 1.107-13.8-.697-20.517-.045-.173-.108-.372-.175-.586zm-13.174 212.51l-1.716 17.338-.44-.163c-4.445-1.807-9.406-1.88-13.902-.203l-1-16.912c3.985.346 11.208.776 17.047-.06z" fill="#ffc7bb"></path><g class="C"><path d="M251.952 564.73l-.65-.884c-.236 1.385-.566 2.753-.99 4.093-.364 1.266 1.526 3.81 3.845 6.934l4.18 5.99.122.2 2.172 3.95c3.357 6.392 7.372 14.036 16.908 14.82 8.6.702 10.238-3.163 10.505-5.28l.015-.128-.06.158-.03.058-.03.056c-1.83 3.278-15.657 2.54-20.12-5.794l-.406-.744-.583-1.075c-4.598-8.044-12.553-19.153-14.88-22.352zm107.773 32.71a4.11 4.11 0 0 0-.044-.415h-31.517v2.674c-.02.4.122.8.394 1.083a1.48 1.48 0 0 0 1.05.474h28.674c.4-.01.778-.18 1.05-.474s.413-.684.393-1.083v-2.26z" class="D"></path><path d="M340.35 183.14v14.486c-12.32.192-21.45-6.15-25.807-9.942v-4.558c.982.938 2.048 1.783 3.184 2.526a17.3 17.3 0 0 0 9.24 2.966h.99a17.3 17.3 0 0 0 9.24-2.966 22.58 22.58 0 0 0 3.154-2.512z" fill="#7c3830" style="mix-blend-mode:multiply" opacity=".15"></path><path d="M347.692 310.28a18.55 18.55 0 0 1-4.944 11.296l-3.955-1.75c4.4-2.566 5.176-11.865 5.176-11.865l2.966 1.943a3.11 3.11 0 0 0 .757.376z" fill="#ffb07d"></path><path d="M327.91 124.64l-.33.003c-5.418-.09-15.43 1.207-21.52 11.094-3.77 6.108-3.946 14.756-3.676 19.623l.035.58c-1.042-.1-2.1.082-3.058.54-1.447.74-2.506 2.068-2.907 3.644a8.49 8.49 0 0 0 1.261 6.921 7.55 7.55 0 0 0 6.516 3.461 8.58 8.58 0 0 0 1.121-.097l.296.78.077.192.157.38a35.36 35.36 0 0 0 6.669 10.75l.02.022V197.3l-.746.187-.208.05-.09.024-.228.055h-.153l-.222.054-2.438.64-1.023.28-1.137.32a.99.99 0 0 0-.529 1.543c1.725 2.323 8.36 9.887 21.288 9.887 13.454 0 20.143-6.52 22.536-9.47l.14-.176a.99.99 0 0 0-.504-1.553c-.58-.182-1.147-.346-1.686-.494l-.21-.058-1.12-.296-1.95-.5-.262-.07-1.656-.417v-14.635a35.27 35.27 0 0 0 6.803-10.903l.03-.075.025-.06.1-.248.16-.398.204-.535c.326.037.654.055.983.055l.178.002c2.545-.003 4.923-1.29 6.318-3.428l.117-.174c1.304-1.99 1.72-4.435 1.14-6.747-.4-1.576-1.46-2.903-2.907-3.644-.887-.424-1.86-.612-2.825-.557.306-4.727.276-13.866-3.642-20.227-5.97-9.665-15.69-11.122-21.152-11.092zm49.505 70.24c13.748 8.053 14.37 21.288 14.376 21.42 0 .273-.22.495-.494.495l.005.034c-.254 0-.463-.19-.49-.436l-.013-.213c-.11-1.483-1.41-13.164-13.878-20.45-.172-.078-.284-.246-.3-.435s.096-.364.263-.452.37-.074.522.037zm-12.85 29.732a.5.5 0 0 0-.671-.551.5.5 0 0 0-.318.388c-.533 3.214-1.353 8.886-1.722 13.546l-.05.658a.99.99 0 0 0-.245.652v2.6c0 .2.058.384.16.54l-.03 1.39-.003.603-.053 6.795-.068 36.9c.018 1.344-.15 2.685-.494 3.984-.687 2.603-2.028 8.077-3.534 16.31l-.225 1.244-6.608-.18-2.072-.03c-.22-.004-.438-.04-.648-.11a2 2 0 0 1-.306-.128l-.063-.034-.06-.036-.075-.05c-.605-.42-1.277-.867-2.074-1.384l-.948-.6-.027-.015-2.398-1.516-2.014-1.265-5.412-3.466-.55-.366-.554-.365c-9.04-5.98-19.502-12.466-26.524-16.758l-3.356-2.044-.1-.064-.134-.077-1.908-1.156-2.165-1.303c-.274-1.264-.658-3.705-1.127-6.855l-.994-6.78c-1.222-8.344-2.81-18.868-4.4-26-.02-.088-.05-.172-.092-.25-.875-5.242-2.168-11.23-2.647-13.45l-.06-.273-.06-.275-.07-.338c-.04-.176-.17-.32-.34-.373s-.36-.014-.495.108a.51.51 0 0 0-.153.483c.02.08 1.534 6.77 2.61 12.95l.105.6c-9.108-1-15.246-4.1-17.06-5.116l-.266-.152c-.11-.12-.252-.213-.415-.267h-.06a.99.99 0 0 0-1.177.494c-.137.255-.15.548-.06.805.084 29.256 11.618 61.378 17.076 64.2l1.522.79 5.44 2.726 1.443.697c.014.005.027.01.04.016a.66.66 0 0 1 .039.017l.855.408c8.486 4.036 21.68 9.96 31.22 14.206l8.018 3.554a.97.97 0 0 0 .164.091l3.955 1.75c.01.004.018.008.027.01s.016.007.024.01.023.008.034.01c.026.01.053.017.08.023l.365.163c.22.095.422.227.598.4 1.674 1.594 6.01 5.582 10.08 8.56l.435.315-.156 1.278a529.05 529.05 0 0 0-1.644 15.693 3.05 3.05 0 0 1-.371 1.221c-1.71 3.08-5.7 10.817-5.666 16.048.01.4.274 9.692.784 12.575l.037.195c.534 2.63 3.01 7.757 5.85 8.07h.186a.93.93 0 0 0 .229-.04c1.22-.396 1.508-2.383.86-5.933a3.26 3.26 0 0 0 .465.326 3.53 3.53 0 0 0 3.208.396c.64-.262 1.18-.72 1.543-1.305a4.11 4.11 0 0 0 4.543-2.003c1.083-.32 3.495-1.443 4.257-5.092 1.3-6.25 1.033-14.485-.707-20.976a24.2 24.2 0 0 0-.183-.613l-.115-.367c-.136-.45-.284-1.024-.216-1.24l.347-1.083c2.193-6.86 3.977-13.134 5.43-18.8.693-.364 1.196-.837 1.506-1.405a2.84 2.84 0 0 0 .326-1.542c.86-.566 1.452-1.46 1.636-2.472l.024-.16c.182-1.42-.27-2.85-1.235-3.907l.09-.416c.178-.23.296-.505.34-.797a1.78 1.78 0 0 0-.019-.698c3.207-15.198 3.61-24.145 3.653-26.295l.005-.406c1.76-9.645 4.02-39.49 2.472-59.736a.99.99 0 0 0-1.661-.647c-5.857 5.487-14.873 6.35-16.702 6.47l-.26.014c.33-4.337 1.076-9.646 1.616-12.985l.118-.716zm-70.5 221.66c.226.154.283.462.13.687l-.713 1.042c-2.51 3.7-4.473 6.886-4.63 7.143l-.01.017c-.09.146-.25.236-.42.237-.09-.001-.18-.026-.257-.074-.215-.133-.293-.403-.19-.627l.048-.1c.243-.425 2.566-4.148 5.358-8.207.155-.225.462-.283.687-.128zM313.743 454c-.09-.84-.856-1.46-1.572-1.755-.253-.105-.543.014-.648.267s.014.542.267.647c.568.223.964.56.99.92.02.316-.324.605-.596.785l-.11.07c-2.23 1.36-5.876-1.082-6.79-1.744l-.212-.16c-.138-.11-.325-.14-.5-.074s-.283.213-.31.388.043.352.18.462c.163.13 3.214 2.52 6.052 2.52.724.008 1.438-.183 2.06-.553 1.038-.628 1.216-1.3 1.177-1.775zm27.907 1.028c.264 0 .482.206.495.47a.49.49 0 0 1-.495.519c-.47-.035-.925.163-1.22.53-.148.326.168.796.37 1.048 1.857 2.32 7.002.685 7.22.615l.007-.002c.17-.07.366-.04.508.078a.49.49 0 0 1 .164.486c-.04.18-.177.323-.356.37a14.41 14.41 0 0 1-4.088.678c-1.557 0-3.194-.36-4.193-1.607-.76-.95-.692-1.65-.494-2.072.346-.77 1.3-1.077 2.08-1.112zm-76.094 12.71c.073.11.1.243.073.372a.49.49 0 0 1-.16.275l-.052.04c-.11.07-10.624 7.228-10.327 22.598 0 .273-.222.494-.495.494v.02c-.273 0-.494-.22-.494-.494-.307-15.934 10.66-23.37 10.772-23.444.227-.15.532-.087.683.14zm-1.063 65.673c.05-.256-.106-.508-.36-.575s-.513.075-.595.323c-.938 3.516-1.337 8.075-1.493 10.616l-.038.668-1.253-.482a.99.99 0 0 0-1.33.742c-.59 3.177-1.273 5.7-2.036 7.55l-.05-.016a.99.99 0 0 0-.989.277c-.193.202-4.716 5.037-6.006 11.014l.002-.017a1.02 1.02 0 0 0-.047.24c-.248 1.318-.566 2.622-.954 3.906-.42 1.524.827 3.468 3.316 6.856l1.348 1.824c1.165 1.577 2.413 3.303 3.488 5.044.615.995 1.217 2.105 1.84 3.29l.44.84c3.393 6.445 7.623 14.48 17.682 15.31.722.055 1.394.085 2.032.085 7.6 0 9.192-3.954 9.512-6.062l.018-.126a2.77 2.77 0 0 0-.008-1.787l-.03-.09c-.65-1.97-2.738-7.507-4.968-13.006l-.64-1.568a7.46 7.46 0 0 0 2.588.383l.247-.005c.273 0 .494-.222.494-.495s-.22-.494-.494-.494a6.53 6.53 0 0 1-3.367-.673l-.752-1.785c.927-.023 1.873-.218 2.443-.8.53-.544.662-1.305.395-2.26-.1-.58-.52-1.046-1.087-1.187-.814-.172-1.867.487-2.77 1.258l-.206.18c-1.224-2.743-2.284-4.874-2.91-5.65-.454-.563-1.088-.954-1.795-1.107l-.05-.012-.05-.01c-.632-.942-1.15-1.957-1.544-3.023a12.73 12.73 0 0 1-.658-2.679c-.088-.656-.088-1.322 0-1.978.13-1.038.49-3.657 1.13-6.847l.14-.692a.99.99 0 0 0-.613-1.127l-11.533-4.434c.11-2.114.472-7.496 1.512-11.406zm89.306 19.12c-.03-.246-.238-.437-.49-.437-.273 0-.495.222-.495.495.005.06.2 5.962-.5 10.758l-.053.353c-5.227.656-11.467.344-15.275.037l-.882-.074a.99.99 0 0 0-.776.272c-.203.203-.31.484-.296.77l.945 16.166c-.475.148-.878.475-1.118.92l-6.996 12.893a5.61 5.61 0 0 0-.64 1.986.98.98 0 0 0-.057.249v2.9a2.47 2.47 0 0 0 2.432 2.414h28.674a2.47 2.47 0 0 0 2.418-2.536v-2.26c.002-.182-.008-.363-.03-.544l.022.13v-.09c-.066-.797-.3-1.57-.687-2.27L352.972 582a2.27 2.27 0 0 0-.55-.617l1.652-16.696a.99.99 0 0 0-.3-.814c-.137-.13-.308-.218-.5-.254.608-4.13.56-9.074.53-10.575l-.014-.512zm-24.637 45.476v1.69c-.026.28.175.533.455.57h28.674c.28-.036.48-.288.455-.57v-1.686l-29.584-.005zM251.8 566.22l.2.277 6.092 8.7.938 1.387c2.453 3.65 4.986 7.585 6.927 10.983.353.616.682 1.215.99 1.795 2.976 5.547 9.863 8.078 15.375 8.127h.153c1.224 0 2.316-.123 3.245-.358-1.534 1.413-4.284 2.004-8.075 1.698-8.453-.697-12.302-7.1-15.505-13.146l-1.077-2.046c-.62-1.177-1.225-2.292-1.858-3.313l-.306-.49c-1.033-1.63-2.182-3.22-3.263-4.68l-.638-.86c-1.666-2.24-3.94-5.344-3.718-6.13l.396-1.462.126-.49zm85.594 16.255l-.258.1a.72.72 0 0 0-.047.021l-.05.023-.04.02c-.124.06-.258.095-.395.104l-6.986 12.883a4.03 4.03 0 0 0-.19.391h29.035l-.055-.132a2.99 2.99 0 0 0-.136-.264l-7.015-12.665c-.032-.022-.065-.04-.1-.06-.01-.004-.017-.01-.026-.013l-.028-.012-.047-.014-.214-.076-.287-.108c-1.63-.664-3.335-1.082-5.06-1.252-2.722-.27-5.494.078-8.1 1.044zm-80.762-27.18l.175.568c.87 3.02 3.447 10.652 7.834 13.107.78.452 1.653.72 2.55.786a5.63 5.63 0 0 0 2.251-.262l.272-.094c.062-.022.122-.05.178-.084a16.89 16.89 0 0 1 1.914-.989l.128-.05c1.42-.6 2.6-.87 3.46-.777h.1c.066.008.132.02.197.034.282.055.536.207.717.43.224.275.537.812.917 1.55l.155.305c-1.025.027-2.253.34-3.652.928a1.73 1.73 0 0 0-.198.084c-.734.316-1.445.68-2.13 1.088-.187.116-.275.342-.215.554s.252.36.472.36c.093 0 .183-.026.262-.075.654-.385 1.33-.73 2.027-1.033l.153-.06c1.543-.653 2.858-.944 3.817-.84l-.046-.004.906 1.97.42.947c-1.048-.45-3.353-1.283-4.667-.52-.58.35-.934.98-.93 1.656-.107.607.16 1.218.677 1.553.822.484 2.236.056 3.436-.488l.253-.12c-.2 1.393-.032 3.202.078 4.067l.05.366c.035.246.246.428.494.425l.094.005c.13-.02.247-.1.325-.195a.5.5 0 0 0 .091-.368c-.23-1.567-.346-4.022.04-4.92l.16-.094a7.45 7.45 0 0 0 1.066 1.345c2.67 6.308 5.728 14.217 6.666 17.095l.024.077a.8.8 0 0 1 0 .392c-.01.025-.02.05-.03.075l-.023.057-.026.057c-.356.642-1.987 1.344-4.74 1.305l-.28-.005c-5.104-.115-9.128-2.173-11.565-4.67-.756-.775-1.36-1.592-1.795-2.406l-1.023-1.844c-1.55-2.713-3.472-5.76-5.43-8.734l-.692-1.047c-3.203-4.82-6.4-9.325-8.14-11.744l-1.062-1.468c.81-3.328 2.74-6.304 4.08-8.046l.206-.265zm92.45 31.31c.435.226.7.682.682 1.172.075.677-.212 1.344-.756 1.755-.943.687-2.565.5-3.773.218.473.905.844 2.022 1.034 2.654.038.126.025.262-.037.378s-.168.202-.294.24c-.04.012-.08.02-.12.02-.226.01-.43-.135-.494-.35-.343-1.147-.81-2.26-1.18-2.882-.395 1.193-1.083 2.27-2.003 3.13-.09.07-.2.106-.312.104-.136.001-.266-.055-.36-.153-.094-.093-.147-.22-.147-.35a.49.49 0 0 1 .147-.351 6.55 6.55 0 0 0 1.631-2.413l-.234.1c-1.126.465-2.74.916-3.8.306-.663-.38-.99-1.082-1.02-2.08-.068-.586.217-1.156.727-1.453 1.34-.717 4.108.94 5.122 1.596l.325-.2c1.22-.732 3.683-2.038 4.86-1.436zm-9.818.9c.1-.053.233-.08.356-.074.76 0 2.175.667 3.302 1.344-1.132.534-2.62.95-3.342.534-.124-.07-.52-.29-.52-1.23-.004-.377.1-.5.165-.55l.038-.024zm5.833 1.176l.266.067c1.164.276 2.49.395 3.086-.027a.93.93 0 0 0 .351-.91c0-.264-.102-.315-.142-.335l-.001-.001c-.51-.262-2.087.35-3.56 1.206zm3.518-4.864c-.053-.12-.152-.215-.275-.262a12.74 12.74 0 0 0-8.765-.267c-.258.1-.394.372-.304.63s.372.394.63.304c2.638-.875 5.5-.783 8.078.257a.57.57 0 0 0 .183.03c.203 0 .385-.123.46-.312a.49.49 0 0 0-.007-.38zm3.37-18.1c-5.17.584-11.124.302-14.9 0l.86 14.466c1.844-.544 3.757-.82 5.68-.816l.487.007c2.024.04 4.043.387 5.986 1.036l.404.14 1.483-14.832zm-77.3 9.14a.93.93 0 0 1 .438-.781 1.69 1.69 0 0 1 .835-.178 7.88 7.88 0 0 1 2.541.584c-1.354.746-3.05 1.43-3.623 1.092-.122-.068-.17-.226-.184-.466l-.007-.25zm6.855-1.75l-.247.227.375.862c.9.026 1.763-.093 2.16-.504l.045-.05c.12-.14.324-.477.108-1.26-.114-.4-.265-.462-.33-.488l-.01-.005-.005-.002c-.453-.1-1.28.488-2.096 1.22zm-23.043-18.558c1.013-1.878 1.903-4.666 2.68-8.285l11.866 4.568a106.43 106.43 0 0 0-1.011 5.969l-.122.903c-.11.83-.11 1.67 0 2.5a14.52 14.52 0 0 0 .757 3.08c.294.808.655 1.59 1.08 2.34-.775.147-1.625.415-2.538.8l-.092.04h-.01l-.11.045c-.773.316-1.525.682-2.25 1.097-.162.05-.326.1-.49.12a3.66 3.66 0 0 1-2.455-.485c-3.746-2.088-6.305-9.376-7.295-12.663l-.007-.028zm-3.922-83.426c.138-.203.106-.48-.083-.648-.204-.18-.516-.16-.697.045l-.001.001c-.173.2-3.896 4.504-4.547 9.93-.015.13.022.262.104.365s.2.17.33.184h.06c.25-.001.46-.188.5-.435.524-4.372 3.276-8.104 4.083-9.12l.26-.322zm115.62-139.337l-.02.025c-.832.973-2.118 1.853-3.78 1.667a5.02 5.02 0 0 1-4.237 2.042 9.23 9.23 0 0 1-2.783-.495c-1.012-.32-2.238-.973-3.56-1.818l-.148 1.244-1.517 14.64c-.062.703-.27 1.385-.613 2.003l-.296.54c-1.505 2.77-5.038 9.762-5.14 14.314l-.001.22c.012.5.297 9.983.78 12.398.44 2.195 2.156 5.315 3.5 6.23l.01-.1c.075-.797.007-2.56-.95-6.23a6.37 6.37 0 0 1-.203-1.849l.233-6.61a.99.99 0 0 1 .988-.955.99.99 0 0 1 .989.989l-.005.485c-.026 4.813.775 8.365 2.067 9.12.43.306.973.404 1.483.267.303-.14.546-.38.69-.676-1.17-3.528-.728-9.914-.704-10.19a.99.99 0 0 1 1.543-.752.99.99 0 0 1 .437.81l-.003.1-.003.044c-.04.657-.37 6.25.567 9.24a2.29 2.29 0 0 0 1.431-.064c.5-.187.9-.535 1.16-.982-.547-2.73-.263-8.49-.248-8.765a.99.99 0 0 1 1.04-.937.99.99 0 0 1 .937 1.04l-.027.593c-.07 1.732-.122 4.91.113 6.897l.14-.082c.744-.457 1.677-1.388 2.067-3.245 1.23-5.878.96-13.94-.682-20.062l-.074-.25-.09-.275-.088-.278c-.248-.805-.49-1.742-.24-2.53 2.082-6.446 3.803-12.375 5.225-17.774zm-60.452 42.755l-5.58-6.57c-.178-.21-.49-.235-.7-.057s-.234.49-.057.7l5.587 6.57c.094.1.23.173.375.173.193 0 .37-.112.45-.288s.052-.38-.074-.528zm-7.04-3.795c.13.01.252.072.337.17l2.967 3.5c.125.147.154.353.073.53-.072.155-.218.26-.385.283l-.07.004c-.144 0-.282-.063-.376-.173l-2.966-3.5c-.085-.1-.126-.23-.115-.36s.074-.252.174-.336.23-.127.36-.117zm6.7-.926l-1.374-1.617c-.11-.15-.293-.228-.477-.2s-.336.158-.394.335-.012.37.12.503l1.375 1.62c.094.1.23.174.375.174.193 0 .37-.113.45-.288s.052-.382-.074-.528zm24.29-30.414a.99.99 0 0 1 .989.988.99.99 0 0 1-.989.989H322.7a.99.99 0 0 1-.989-.989.99.99 0 0 1 .989-.988h10.98zm10.646-18.134l.047-.057.194-.24a19.44 19.44 0 0 0 4.007-9.546l.752.01c6.226.082 13.88.362 15.826.876 1.733.457 4.603 3.287 6.465 5.225l.837.88.762.79c-.01.001-.02.003-.032.004l-.038.003a1.23 1.23 0 0 1-.085.003c-2.496-1.275-5.236-2.778-5.794-3.196l-.058-.047a4.38 4.38 0 0 1-.732-.989.99.99 0 0 0-1.327-.442.99.99 0 0 0-.443 1.327c.292.554.664 1.062 1.103 1.508.503.504 3.256 2 5.228 3.023l1.065.554a.87.87 0 0 0 .071.053l.01.008c.006.003.01.007.017.01l.105.072c.454.325 2.21 1.706 1.873 3.388l-.018.1c-.086.426-.338.795-.692 1.033l-3.705-2.863a.99.99 0 0 0-1.207 1.562l3.958 3.032c.037.206.008.42-.087.612-.15.264-.6.733-2.016 1.006l-3.412-2.425a.99.99 0 0 0-1.379.232.99.99 0 0 0 .232 1.379l3.006 2.138c-.46.625-1.3 1.414-2.503 1.146l-2.896-1.766a.99.99 0 0 0-1.346.334.99.99 0 0 0 .313 1.352l2.113 1.292c-.61.618-1.94 1.34-4.575.503-3.165-.997-9.452-6.176-14.534-10.9l-.628-.6c-.15-.14-.3-.27-.478-.385zm.4-11.61l-.053.324c-.425 2.5-1.458 6.857-3.84 9.416l-.17.175 1.82.805.18-.214a17.93 17.93 0 0 0 3.983-9.255c-.105-.057-.207-.12-.306-.185l-.37-.25-1.244-.816zm-54.186-13.182c-4.4-2.255-15.564-32.95-16-61.086 5.164 2.544 10.73 4.175 16.448 4.82 1.44 6.68 2.876 16.063 4.028 23.866l.56 3.8 1.452 9.492.095.544c-1.125-.51-2.264-.993-3.416-1.444a.99.99 0 0 0-1.277.571.99.99 0 0 0 .571 1.278c2.818 1.105 5.56 2.396 8.205 3.865 6.03 3.65 19.264 11.734 30.506 19.145l1.037.686.192.123.54.36 4.255 2.735 2.726 1.71 2.437 1.542c-.324 2.69-1.514 8.186-4.222 10.2l-37.806-17.088-1.714-.814c-.104-.055-.213-.104-.292-.14l-6.55-3.254-1.775-.923zm89.032-61.94c-5.774 4.484-13.22 5.478-15.83 5.7l-.001.4c-.003.272-.01.563-.033.856l-.05 1.874-.01.652v.88l-.036 4.913-.027 3.038-.08 11.897.02 23.357a16.72 16.72 0 0 1-.458 4.182l-.086.342c-.705 2.676-2.11 8.427-3.68 17.144l.743.04c2.446.14 4.58.338 5.62.612 2.31.608 5.34 3.61 8.035 6.438l.193-.96c3.085-15.468 3.084-23.6 3.084-23.78v-.002a1.17 1.17 0 0 1 0-.187c1.686-9.16 3.856-37.31 2.595-57.378zm-32.58 49.61c0-.273-.222-.495-.495-.495s-.494.222-.494.495c0 .133-.01 13.803-1.152 17.402-.08.26.063.535.32.618a.53.53 0 0 0 .149 0c.2.005.4-.124.474-.32.983-3.073 1.158-12.65 1.2-16.292l.007-1.407zm-56.142 8.64c.13.025.243.1.316.21l.082.118c.44.614 1.56 1.848 2.675 1.93l.116.004c.273 0 .494.22.494.494s-.22.495-.494.495v-.02c-1.925 0-3.488-2.185-3.676-2.448l-.013-.018-.004-.006c-.15-.226-.09-.53.133-.682.11-.074.243-.1.37-.076zm82.637-2.238c.062-.213-.025-.442-.214-.56-2.57-1.61-5.893-.726-6.032-.687l-.054.02c-.23.092-.36.345-.292.59.073.264.345.42.608.346.03-.01 3.05-.8 5.24.57.078.05.17.078.262.08.222.003.42-.143.48-.356zm-60.237-91.425h-.07c-.04.007-.08.017-.12.03l-.35.084h-.103l-.312.08-.188.05h-.197l-.11.03h-.055l-.09.025-.247.06c-.883.315-1.815.57-2.776.834l-.003.001-.325.09h-.01l.154.172c2.56 2.827 8.494 7.778 18.632 7.778 11.267 0 17.402-4.806 20.126-7.797l-.518-.142-3.18-.827-1.186-.3-.588-.145-.152.165c-1.395 1.475-5.19 4.646-12.37 5.148l-.317.02-.525.025-.3.01-.512.01h-.305a22.8 22.8 0 0 1-1.24-.033 24.3 24.3 0 0 1-.681-.046l-.405-.038-.19-.02-.232-.027-.234-.03-.267-.037c-.323-.047-.64-.1-.947-.16l-.353-.07-.54-.12-.338-.084-.338-.09-.306-.087-.166-.048-.35-.11-.24-.08-.352-.12a19.25 19.25 0 0 1-.644-.241l-.27-.108-.415-.176-.198-.088-.3-.138-.13-.062-.445-.22-.302-.158-.135-.073c-.55-.3-1.05-.608-1.5-.91l-.053-.036c-1.014-.686-1.758-1.338-2.234-1.798l-.193-.19zm81.805 6.214c-.07-.228-1.81-5.676-6.096-9.057-.213-.168-.522-.133-.692.08-.082.103-.12.234-.105.365s.08.25.184.332c3.942 3.108 5.676 8.254 5.762 8.563l.003.015c.067.214.27.356.494.346a.51.51 0 0 0 .129-.02c.125-.04.23-.128.3-.245a.49.49 0 0 0 .031-.378zm-80.53-20.883l.02 13.146.21.212c1.278 1.244 5.49 4.732 12.49 4.732 8.355 0 12.246-3.852 13.13-4.87V184.6c-.796.684-1.635 1.317-2.512 1.896a18.28 18.28 0 0 1-9.744 3.125h-1.043l-.074-.005h-.05a18.4 18.4 0 0 1-9.778-3.125c-.93-.608-1.816-1.282-2.65-2.017zm-10.207-27.676c-.287-3.418-.722-13.51 3.276-19.997 5.576-9.032 14.8-10.238 19.84-10.154 4.988-.08 14.2 1.122 19.775 10.154 3.95 6.412 3.57 16.38 3.288 19.896l-.035.413c-.002.022-.002.043 0 .065l.974.083-.94-.024h-.035c-.022.237-.045.438-.065.6l-.063.478v.08l-.03.38c-.08.716-.153 1.33-.252 1.977s-.203 1.28-.32 1.884c-.055.3-.12.632-.183.914l-.188.84c-.002.013-.002.026 0 .04a10.55 10.55 0 0 1-.1.399l-.103.377v.065l-.208.73-.05.164c-.05.165-.105.333-.168.52a63.13 63.13 0 0 1-.776 2.313v.05l-.455 1.226-.302.76a33.35 33.35 0 0 1-6.555 10.432c-1.2 1.272-2.545 2.402-4.005 3.366-2.562 1.742-5.57 2.715-8.666 2.803h-1.043a16.25 16.25 0 0 1-2.781-.322l-.35-.076-.31-.074a16.31 16.31 0 0 1-5.216-2.331c-1.46-.96-2.803-2.087-4.004-3.357l-.285-.3c-2.682-2.972-4.808-6.404-6.276-10.13l-.296-.75-.157-.41-.308-.827-.12-.05-.213-.61c-.272-.788-.534-1.6-.783-2.42l-.117-.404-.106-.377-.11-.407-.064-.26-.02-.094c-.027-.125-.054-.25-.094-.4-.027-.105-.054-.24-.082-.374l-.066-.308-.047-.208-.086-.425v-.144c-.055-.286-.11-.583-.16-.904-.04-.198-.07-.396-.098-.603.001-.012.002-.023.001-.034s0-.017-.001-.026l-.03-.197v-.13l-.043-.305-.086-.634-.05-.397-.07-.637c-.04-.113-.04-.227-.04-.346l.002-.054-.002-.03v-.104c.01-.023.018-.04 0-.08l-.014-.043c-.01-.046-.01-.1-.01-.16.003-.027.003-.053 0-.08v-.14c-.003-.03-.008-.065-.014-.1-.016-.106-.035-.235-.035-.393 0-.13-.025-.256-.072-.372zm48.236 1.18l-.012.003-.074.584-.034.37-.227 1.866-.035.235-.275 1.65-.06.326-.126.64-.182.836-.078.33c.001.01.001.018.001.027s0 .015-.001.022l-.05.212a2.16 2.16 0 0 0 1.618-.929c.47-.653.55-1.51.203-2.24-.15-.23-.084-.536.146-.685s.536-.083.684.146c.518.99.484 2.18-.09 3.14s-1.608 1.55-2.727 1.562l.02-.01-.11.005-.073.254-.17.56c-.044.145-.088.28-.138.423-.12.396-.26.81-.41 1.245l-.125-.01c2.052.195 4.045-.732 5.22-2.416l.1-.135c1.072-1.534 1.432-3.456.99-5.275a3.68 3.68 0 0 0-1.854-2.397c-.612-.293-1.29-.416-1.964-.357l-.155.017zm-52.366.325c.507-.245 1.063-.37 1.626-.37a4.17 4.17 0 0 1 .697.059v.104a.77.77 0 0 1 .035.267v.188c.004.068.014.134.023.198a1.51 1.51 0 0 1 .021.207c.035.356.075.712.12 1.044l.134.988v.12c.003.033.01.066.017.1a.81.81 0 0 1 .022.162l.052.335.052.313.168.944.057.286.044.196a5.64 5.64 0 0 1 .072.339l.042.22.045.213.14.62.06.243c-.702-.001-1.365-.348-1.766-.934-.476-.652-.554-1.513-.203-2.24.096-.148.106-.337.026-.494s-.24-.26-.415-.27-.345.077-.44.225a3.21 3.21 0 0 0 2.813 4.702 2.52 2.52 0 0 0 .275-.006l-.026.002.012.043c.01.042.023.082.035.123l.094.322a50.52 50.52 0 0 0 .633 1.978 5.71 5.71 0 0 1-5.31-2.551l-.104-.155a6.52 6.52 0 0 1-.884-5.12 3.68 3.68 0 0 1 1.834-2.398zm3.772 7.752c-.02.001-.037.003-.056.004l.056-.004z" class="B"></path><path d="M345.48 167.842c0 3.017-2.213 5.464-4.943 5.464s-4.944-2.447-4.944-5.464 2.213-5.465 4.944-5.465 4.943 2.447 4.943 5.465zm-26.696 0c0 3.018-2.213 5.464-4.944 5.464s-4.944-2.446-4.944-5.464 2.214-5.464 4.944-5.464 4.944 2.446 4.944 5.464z" fill="#ff1300" style="mix-blend-mode:multiply" opacity=".15"></path></g><path d="M327.16 173.583c-2.022 0-3.886-.697-4.978-1.86a.87.87 0 0 1-.2-.842c.088-.296.33-.523.63-.594s.617.024.83.25c.762.8 2.185 1.315 3.718 1.315s2.966-.495 3.718-1.315c.212-.226.528-.32.83-.25s.54.297.63.594a.86.86 0 0 1-.2.842c-1.102 1.162-2.956 1.86-4.978 1.86zm1.32 2.357h-2.64c-.273 0-.495-.22-.495-.494s.222-.495.495-.495h2.64c.273 0 .494.222.494.495s-.22.494-.494.494zm-1.304-8.84c-1.08.014-2.095-.513-2.704-1.404-.26-.402-.145-.937.257-1.197s.937-.144 1.196.257a1.57 1.57 0 0 0 2.512-.024c.248-.4.78-.54 1.2-.292s.54.782.292 1.2a3.2 3.2 0 0 1-2.744 1.47zm-9.956-5.94c2.195 0 2.2-3.4 0-3.4s-2.2 3.4 0 3.4zm20.256 0c2.2 0 2.195-3.4 0-3.4s-2.2 3.4 0 3.4zm-15.776-5.9a.98.98 0 0 1-.454-.108c-3.9-2.003-7.9 0-7.9 0a.99.99 0 0 1-1.333-.428.99.99 0 0 1 .428-1.332c.198-.1 4.944-2.472 9.74 0a.99.99 0 0 1-.45 1.868h-.02zm20.068.002a1 1 0 0 1-.449-.109c-3.896-2.002-7.9 0-7.9 0a.99.99 0 0 1-1.006-.032c-.304-.192-.48-.535-.457-.895s.237-.68.563-.833c.198-.104 4.944-2.472 9.74 0a.99.99 0 0 1-.48 1.869z" class="B"></path><g class="C"><path d="M341.724 197.808s-2.13-8.563 10.006-7.994c0 0-.054 10.92-10.006 7.994z" class="G"></path><path d="M341.462 198.757c1.107.342 2.258.523 3.417.54a7.04 7.04 0 0 0 4.32-1.355c3.476-2.585 3.54-7.9 3.54-8.127a.99.99 0 0 0-.939-.989c-4.588-.213-7.836.8-9.655 3.02-2.2 2.685-1.4 6.062-1.36 6.205a.99.99 0 0 0 .677.707zm6.556-2.398c-1.33.994-3.144 1.216-5.4.663l-.02.005a5.35 5.35 0 0 1 1.083-3.921c1.26-1.547 3.59-2.328 6.92-2.328h.09c-.173 1.443-.75 4.152-2.674 5.58z" class="B"></path></g><path d="M341.724 198.302c-.06 0-.12-.01-.178-.03a.49.49 0 0 1-.286-.637c.99-2.65 6.07-5.048 6.288-5.147.246-.112.537-.007.653.237s.01.542-.237.658c-1.365.638-5.063 2.714-5.78 4.603-.073.2-.256.315-.46.316z" class="B"></path><g class="C"><path d="M341.418 194.406v5.093c-.223 1.606-3.43 2.966-7.984 3.623a42.07 42.07 0 0 1-5.75.401h-.346c-.653 0-1.295 0-1.923-.05l-3.827-.35c-4.528-.637-7.727-1.977-7.98-3.6v-5.112c-.002-.112.067-.214.172-.254a.27.27 0 0 1 .298.076c1.077 1.197 3.86 2.18 7.51 2.695l3.243.32 2.507.08h.346a42.23 42.23 0 0 0 5.75-.4c1.53-.2 3.04-.542 4.508-1.024 1.122-.306 2.154-.88 3.006-1.67.073-.084.2-.115.295-.076s.174.138.175.25z" class="G"></path><path d="M327.343 204.51h0l.4-.02a43.05 43.05 0 0 0 5.883-.411c2.516-.336 8.414-1.483 8.824-4.45a1 1 0 0 0 0-.134v-5.126c.001-.522-.32-1-.81-1.176s-1.04-.05-1.386.34c-.252.282-.924.836-2.6 1.4-1.41.462-2.86.793-4.33.99a41.4 41.4 0 0 1-5.606.391h-.34l-2.472-.08-3.16-.31c-4.05-.57-6.235-1.602-6.922-2.363-.343-.397-.898-.538-1.39-.354s-.817.655-.816 1.18v5.265c.465 2.966 6.343 4.098 8.815 4.45a40.93 40.93 0 0 0 3.921.361c.618.05 1.255.05 1.977.05zm-5.61-2.368c-4.618-.652-6.912-1.957-7.13-2.72v-3.54c1.987 1.18 5.003 1.76 6.847 2.022l3.327.326 2.566.084h.35a43.04 43.04 0 0 0 5.883-.41 25.5 25.5 0 0 0 4.687-1.068 11.39 11.39 0 0 0 2.17-.959v3.53c-.217.757-2.482 2.077-7.14 2.734-1.857.258-3.73.388-5.606.39h-.34l-1.884-.05-3.732-.342z" class="B"></path><path d="M324.836 197.25c-5.136 2.34-9.205 2.398-10.654 2.324-.37 0-.568-.05-.568-.05v-5.112c-.002-.112.067-.214.172-.254s.224-.01.297.076c1.078 1.197 3.862 2.18 7.5 2.695 1.038.148 2.106.257 3.243.32z" fill="#ff7db0"></path><path d="M314.133 200.576h.77c3.587-.065 7.118-.89 10.362-2.422a.99.99 0 0 0-.356-1.889 35.85 35.85 0 0 1-3.159-.311c-4.05-.57-6.234-1.602-6.92-2.363-.344-.397-.898-.538-1.4-.354s-.816.654-.815 1.18v5.112a.99.99 0 0 0 .841.989s.232.035.667.06zm6.402-2.808c-1.926.564-3.925.844-5.932.83v-2.714c1.666 1.003 4.103 1.577 5.932 1.883z" class="B"></path><path d="M334.215 199.138a19.35 19.35 0 0 0 3.732-3.234 7.2 7.2 0 0 0 3.006-1.671c.065-.11.198-.158.318-.116s.194.163.176.29v5.093c-.222 1.606-3.43 2.966-7.984 3.623-1.905.265-3.826.4-5.75.4h-.347c-.652 0-1.295 0-1.923-.05 1.864-.66 3.68-1.446 5.44-2.353" fill="#c2eb93"></path></g><path d="M327.343 204.51c-.722 0-1.36 0-1.978-.05a.99.99 0 0 1-.277-1.923c1.82-.647 3.593-1.415 5.3-2.3a.99.99 0 0 1 1.444.926.99.99 0 0 1-.535.834l-.875.44 2.858-.297c4.657-.657 6.92-1.977 7.14-2.734v-3.53a11.36 11.36 0 0 1-1.918.875c-1.116 1.213-2.374 2.287-3.748 3.198a.99.99 0 0 1-1.374-.262.99.99 0 0 1 .262-1.374c1.308-.86 2.498-1.9 3.54-3.06.117-.133.267-.233.435-.292 1.66-.56 2.333-1.112 2.585-1.394.347-.39.898-.526 1.386-.34s.8.653.81 1.175v5.092a1 1 0 0 1 0 .134c-.4 2.966-6.308 4.113-8.824 4.45-1.95.272-3.915.41-5.884.41l-.355.02z" class="B"></path><g class="C"><path d="M341.448 196.78s5.26-4.232 8.77 4.376c0 0-7.594 3.475-8.77-4.376z" fill="#ebb759"></path><path d="M343.642 202.203c.926.482 1.958.725 3 .707a10.56 10.56 0 0 0 3.99-.856.99.99 0 0 0 .494-1.275c-1.354-3.322-3.154-5.295-5.354-5.863-2.684-.692-4.855 1.023-4.944 1.097a.99.99 0 0 0-.356.915c.38 2.57 1.45 4.345 3.17 5.275zm.945-1.735c-1.02-.554-1.706-1.632-2.047-3.214a3.86 3.86 0 0 1 2.739-.425c1.35.35 2.586 1.64 3.604 3.752-1.078.312-2.897.643-4.296-.113z" class="B"></path></g><path d="M345.832 199.627c-.155 0-.302-.073-.395-.198-1.483-1.943-4-2.155-4.024-2.155-.272-.02-.475-.258-.455-.53s.257-.475.53-.455c.123 0 3.016.247 4.74 2.546.08.105.112.237.094.367s-.088.246-.193.325c-.085.064-.2.1-.297.1z" class="B"></path><path d="M327.338 118.816c2.592-.004 5.174.315 7.687.95-.55-1.282-1.248-2.496-2.076-3.62-2.62-3.53-7.495-7.366-16.16-6.7-15.297 1.187-20.685 20.477-22.425 31.146-1.29 7.9-5.64 12.4-9.425 16.32-4.436 4.592-8.1 8.384-5.165 15.903 0 0-3.698 11.756 9.58 11.32 0 0 4.924 7.247 11.974 0 3.204-3.298 4.064-8.9 3.995-14.668a6.77 6.77 0 0 1-6.872-2.922c-2.452-3.762-1.345-7.876 1.246-9.107.18-.086.368-.16.56-.22v.003a4.88 4.88 0 0 1 3.055 0l.628-1.89 5.057-16.695s0 5.414 1.4 8.672a1.53 1.53 0 0 0 1.404.914h31.418c.628-.005 1.19-.393 1.414-.98 1.137-2.966 1.137-7.727 1.137-7.727l5.587 17.704a4.88 4.88 0 0 1 3.055 0v-15.252c0-10.495-8.177-19.365-19.4-22.202-2.513-.634-5.095-.953-7.687-.95-10.923 0-20.334 5.538-24.616 13.5 3.278-6.102 9.568-10.78 17.244-12.634a31.49 31.49 0 0 1 7.377-.87z" fill="#8c9ad9"></path><g class="C"><path d="M333.73 115.538a19.01 19.01 0 0 1 2.026 3.41c11.613 3.13 19.667 12.546 19.667 23.04v15.252c.001.32-.152.62-.41.805a.99.99 0 0 1-.894.134c-.802-.267-1.67-.267-2.472 0-.093.025-.2.037-.287.035a.99.99 0 0 1-.944-.687l-4.083-12.943c-.164 1.027-.422 2.036-.772 3.015a2.53 2.53 0 0 1-2.353 1.612H311.79c-1.003.003-1.91-.592-2.308-1.513a17.04 17.04 0 0 1-1.044-3.841l-3.55 11.722v.07l-.628 1.888a.99.99 0 0 1-1.236.633c-.74-.244-1.535-.26-2.283-.05l-.16.05a.99.99 0 0 1-.256.05c-.074.028-.147.06-.22.094-.93.497-1.602 1.367-1.85 2.392a6.55 6.55 0 0 0 .884 5.125l.105.155c1.88 2.858 4.988 2.626 5.893 2.472a.99.99 0 0 1 .791.223c.22.184.347.455.35.74.083 7.178-1.267 12.163-4.14 15.226l-.137.145c-2.26 2.378-4.588 3.56-6.917 3.56a6.14 6.14 0 0 1-.608-.03c-2.892-.252-4.865-2.274-5.62-3.188-4.163.05-7.154-1.103-8.9-3.407-2.447-3.223-1.562-7.608-1.24-8.87-2.824-7.593.84-11.806 4.974-16.098l1.178-1.222c3.537-3.686 7.325-7.966 8.502-15.136l.093-.565c1.606-9.472 7.01-30.15 23.232-31.39 9.2-.707 14.337 3.46 17.03 7.094zm-16.883-5.117c-15.153 1.162-20.102 21.58-21.525 30.306-1.303 7.977-5.534 12.54-9.367 16.51l-1.132 1.172c-4.003 4.176-6.668 7.483-4.155 13.97l.053.095c.366.62 1.623 2.153 4.797 1.356.265-.065.533.096.598.36s-.096.533-.36.598c-.62.17-1.26.26-1.903.272-1.622 0-2.67-.625-3.31-1.246l-.037.187c-.276 1.472-.56 4.407 1.044 6.497 1.41 1.85 4.024 2.73 7.767 2.6l.025.04a.99.99 0 0 1 .767.37l.1.138c.315.416 2.002 2.497 4.46 2.706 1.908.163 3.906-.816 5.933-2.902 2.442-2.517 3.663-6.74 3.717-12.9-2.7.1-5.238-1.205-6.708-3.46-1.4-2.017-1.86-4.54-1.26-6.922.398-1.577 1.458-2.905 2.907-3.643v-14.584c0-10.773 8.404-20.33 20.457-23.236 4.424-1.054 9.018-1.18 13.492-.366-.326-.558-.682-1.098-1.068-1.617-2.393-3.228-6.995-6.92-15.29-6.303zm-3.643 12.897c4.072-2.232 8.92-3.528 14.12-3.528 2.5-.002 5.01.307 7.445.92 10.975 2.793 18.643 11.53 18.643 21.258v14.04a5.8 5.8 0 0 0-1.399.049l-5.3-16.833c-.145-.468-.6-.76-1.094-.684a.99.99 0 0 0-.839.98c0 .045-.014 4.598-1.072 7.376l-.028.06a.54.54 0 0 1-.467.278l-3.97-.001c1.077-4.286-.304-9.18-.654-10.298l-.073-.227c-.09-.258-.37-.395-.628-.306a.49.49 0 0 0-.286.249c-.06.118-.068.254-.026.38.024.06 1.896 5.664.645 10.203h-10.71c-.874-3.692-.134-8.256.188-9.93l.143-.71c.03-.245-.126-.48-.372-.54-.128-.03-.263-.01-.375.058s-.193.18-.223.308l-.008.03c-.135.527-1.408 6.143-.392 10.786l-9.76.001c-.544-1.673-1.346-5.606.832-10.5.053-.12.057-.256.01-.38s-.14-.22-.26-.274a.5.5 0 0 0-.379-.009c-.122.047-.22.14-.274.262-2.1 4.718-1.634 8.557-1.075 10.603l.085.298h-3.855c-.213.002-.407-.122-.494-.317-1.093-2.51-1.28-6.502-1.313-7.833l-.007-.448a.99.99 0 0 0-1.938-.286l-5.057 16.695v.03l-.332.99a6.35 6.35 0 0 0-.914-.069l-.5-.001v-14.05c0-7.517 4.535-14.404 11.638-18.443l.327-.182z" class="B"></path><path d="M334.363 118.42a.72.72 0 0 1-.06.768c-.168.222-.45.328-.72.27-2.056-.414-4.148-.623-6.244-.623a31.73 31.73 0 0 0-6.497.673c-.213.048-.437-.004-.608-.14s-.27-.344-.272-.562a3.12 3.12 0 0 1 2.304-3.031c1.933-.494 5.112-.86 9.61.14a2.8 2.8 0 0 1 1.74 1.221l.747 1.285z" class="F"></path><path d="M332.08 114.93c.968.222 1.812.813 2.353 1.646l.61 1.01.2.344c.318.58.266 1.292-.133 1.82-.394.537-1.065.794-1.716.657-4.08-.814-8.285-.798-12.36.05a1.78 1.78 0 0 1-.356.039 1.71 1.71 0 0 1-1.711-1.71 4.11 4.11 0 0 1 1.321-3.036 6.57 6.57 0 0 0-6.022.673c-1.142.7-2.147 1.62-2.967 2.684-.1.137-.26.213-.43.203-.104.002-.206-.03-.292-.09-.107-.076-.18-.193-.2-.322-.018-.11.001-.22.052-.315l.035-.055.005-.008c.19-.25 4.755-6.295 10.748-3.417.25-.126.513-.228.79-.303 1.977-.524 5.334-.924 10.08.13zm11.015 13.452c-1.34-1.683-3.2-2.87-5.3-3.377-.273-.056-.54.12-.596.393s.12.54.393.596l.18.046c.665.183 3.035.946 4.518 2.955.094.126.243.2.4.198a.5.5 0 0 0 .292-.119.49.49 0 0 0 .195-.325.49.49 0 0 0-.091-.367zm-43.92 45.85c.246.096.373.37.287.62-.403 1.026-.887 2.018-1.45 2.967-.086.154-.248.25-.425.252s-.342-.096-.43-.25-.087-.344.004-.497c.534-.906.995-1.853 1.38-2.832.108-.242.386-.357.633-.26zm-2.987 5.048a.5.5 0 0 1 .383.314c.062.166.032.352-.08.49-3.12 3.79-7.62 4.32-9.672 4.35l-.186.001-.2-.001c-.382-.006-.646-.028-.706-.033h-.004a.5.5 0 0 1-.443-.546.5.5 0 0 1 .489-.446l.314.017c1.2.048 6.35.02 9.63-3.97.112-.137.29-.203.464-.175zm26.312-62.57a15.5 15.5 0 0 1 3.925-.465c1.76.013 3.51.22 5.226.613a1.83 1.83 0 0 1 1.122.796l.11.166c.11.172.22.36.324.54-4.052-.735-8.206-.704-12.246.094a2.13 2.13 0 0 1 1.538-1.745z" class="B"></path><path d="M299.772 180.638c-3.347-2.047 1.517-8.276 1.517-8.276s4.86 6.224 1.523 8.276c-.936.56-2.104.56-3.04 0z" class="F"></path><path d="M299.257 181.478c.612.374 1.315.57 2.032.57a3.87 3.87 0 0 0 2.037-.569c.837-.498 1.413-1.338 1.577-2.3.544-2.966-2.487-6.965-2.833-7.415-.188-.24-.477-.378-.78-.376a.99.99 0 0 0-.776.376c-.366.43-3.382 4.42-2.838 7.415.165.962.743 1.802 1.582 2.3zm.36-2.65c-.227-1.25.722-3.258 1.67-4.74.86 1.36 1.913 3.406 1.666 4.716a1.36 1.36 0 0 1-.667.989 1.94 1.94 0 0 1-2.002 0 1.36 1.36 0 0 1-.668-.964z" class="B"></path></g><path d="M301.3 181.102c-.155 0-.302-.073-.395-.197-1-1.3-.08-3.046-.04-3.12.076-.168.24-.28.424-.3s.36.083.453.242a.5.5 0 0 1-.007.514c0 .03-.642 1.26-.04 2.056a.5.5 0 0 1-.099.693.5.5 0 0 1-.297.103zm0-8.246c-.273 0-.494-.22-.494-.494v-2.527c0-.273.22-.494.494-.494s.495.22.495.494v2.546c-.01.266-.23.475-.495.475z" class="B"></path><g class="C"><path d="M351.35 180.494c-3.347-2.047 1.518-8.276 1.518-8.276s4.86 6.23 1.518 8.276c-.934.564-2.102.564-3.036 0z" class="F"></path><path d="M350.83 181.34a3.95 3.95 0 0 0 2.037.563c.718.002 1.423-.194 2.037-.568a3.33 3.33 0 0 0 1.577-2.299c.544-2.966-2.487-6.97-2.833-7.416a.99.99 0 0 0-.781-.38c-.305-.001-.594.14-.78.38-.366.435-3.377 4.45-2.838 7.416a3.33 3.33 0 0 0 1.582 2.304zm2.034-7.392l-.002-.004zm-1.663 4.737c-.227-1.25.715-3.255 1.663-4.737.865 1.36 1.9 3.403 1.674 4.737-.06.406-.305.762-.663.964a1.95 1.95 0 0 1-2.007 0c-.358-.202-.604-.558-.667-.964z" class="B"></path></g><path d="M352.685 180.96a.5.5 0 0 1-.297-.099.49.49 0 0 1-.192-.326.49.49 0 0 1 .093-.366c.6-.8-.034-2.047-.04-2.057a.5.5 0 0 1 .438-.747.5.5 0 0 1 .432.253c.04.074.95 1.8-.04 3.12-.088.134-.235.217-.395.223zm.183-8.247c-.273 0-.494-.222-.494-.495v-2.546c0-.273.22-.494.494-.494s.494.22.494.494v2.546c0 .273-.22.495-.494.495z" class="B"></path><path d="M645.08 203.314h51.38v51.38h-51.38z" class="D"></path><path d="M645.075 255.436h51.38c.197 0 .386-.078.525-.217a.74.74 0 0 0 .217-.524v-51.38a.74.74 0 0 0-.742-.742h-51.38a.74.74 0 0 0-.742.742v51.38a.74.74 0 0 0 .742.741zm50.64-1.483h-49.898v-49.898h49.898v49.898z" class="C E"></path><path d="M659.63 217.863h22.277v22.277H659.63z" class="D"></path><g class="E"><path d="M659.63 240.882h22.277a.74.74 0 0 0 .742-.742v-22.277a.74.74 0 0 0-.742-.741H659.63a.74.74 0 0 0-.741.741v22.277a.74.74 0 0 0 .741.742zm21.535-1.484H660.37l-.005-20.793h20.798v20.793z" class="C"></path><path d="M670.748 231.7a4.66 4.66 0 0 1-4.164-7.034c.867-1.465 2.463-2.34 4.164-2.285a.742.742 0 1 1 0 1.483 3.18 3.18 0 1 0 0 6.353.742.742 0 1 1 0 1.483zm0 3.912a.742.742 0 1 1 0-1.484 3.18 3.18 0 0 0 3.053-3.176 3.18 3.18 0 0 0-3.053-3.176.742.742 0 1 1 0-1.484c2.514.082 4.5 2.144 4.5 4.66s-1.996 4.578-4.5 4.66z"></path><path d="M664.458 236.2a2.13 2.13 0 0 0 1.969 1.315c1.175-.003 2.128-.955 2.13-2.13a2.13 2.13 0 1 0-4.1.816zm1.37-1.064a.65.65 0 0 1 .598-.4.65.65 0 0 1 .648.647.65.65 0 0 1-1.105.459.65.65 0 0 1-.14-.706zm7.757-12.012c0 1.553 1.26 2.813 2.813 2.813s2.813-1.26 2.813-2.813-1.26-2.813-2.813-2.813-2.813 1.26-2.813 2.813zm1.483 0a1.33 1.33 0 0 1 1.33-1.33c.734.002 1.328.596 1.33 1.33a1.33 1.33 0 0 1-2.66 0z" class="C"></path><path d="M664.88 223.425a.49.49 0 0 1-.356-.148l-2.472-2.58c-.2-.198-.183-.512.014-.702a.5.5 0 0 1 .703.015l2.47 2.58a.49.49 0 0 1 .097.535c-.077.18-.255.3-.453.3h-.004zm-2.096.41a.49.49 0 0 1-.36-.16l-.697-.746c-.187-.2-.176-.515.024-.702s.515-.176.702.025l.697.75c.184.2.17.512-.03.697a.5.5 0 0 1-.336.134z"></path></g><path d="M44.063 602.226H99.26a.99.99 0 0 0 .989-.989.99.99 0 0 0-.989-.989H44.063a.99.99 0 0 0-.989.989.99.99 0 0 0 .989.989zm68.16 0h407.27a.99.99 0 0 0 .989-.989.99.99 0 0 0-.989-.989h-407.27a.99.99 0 0 0-.989.989.99.99 0 0 0 .989.989zm420.05 0H799.87a.99.99 0 0 0 .989-.989.99.99 0 0 0-.989-.989H532.273a.99.99 0 0 0-.989.989.99.99 0 0 0 .989.989z" class="B"></path><path d="M594.727 94.632H747.24v108.365H594.727z" class="D"></path><g class="C"><path d="M594.723 203.855h152.512a.86.86 0 0 0 .859-.859V94.632a.86.86 0 0 0-.859-.859H594.723a.86.86 0 0 0-.859.859v108.365a.86.86 0 0 0 .859.859zm151.654-1.718H595.58V95.5h150.796v106.647z" class="B"></path><path d="M638.296 148.824l22.147-27.538a.98.98 0 0 1 1.545.026l33.403 44.49c.173.23.442.366.73.37s.56-.123.742-.346l18.46-22.975c.187-.237.472-.375.773-.375s.586.138.773.375l30.337 40.387v19.747H594.723l38.636-48.02" class="F"></path></g><path d="M747.235 203.855H594.723a.86.86 0 0 1-.77-.489c-.142-.297-.1-.65.105-.906l38.635-48.02c.188-.254.5-.384.81-.34a.86.86 0 0 1 .524 1.416l-37.494 46.62h149.86v-18.59l-30.166-40.155c-.02-.03-.057-.05-.094-.047s-.072.014-.095.043l-18.46 22.975c-.34.424-.853.67-1.395.67h-.03a1.79 1.79 0 0 1-1.404-.717l-33.42-44.49c-.024-.028-.058-.045-.095-.047s-.073.016-.094.047l-22.147 27.534a.86.86 0 0 1-1.19.113.86.86 0 0 1-.149-1.186l22.104-27.517c.355-.443.895-.696 1.462-.687s1.1.28 1.44.734l33.42 44.49c.013.018.033.03.055.03s.045-.013.06-.03l18.46-22.975a1.86 1.86 0 0 1 1.464-.683 1.83 1.83 0 0 1 1.438.73l30.337 40.387c.112.15.172.33.172.515v19.747a.86.86 0 0 1-.833.825z" class="B"></path><path d="M591.632 206.09v-6.186h6.186v6.186z" class="D"></path><use xlink:href="#C" class="B C"></use><path d="M591.632 97.722v-6.186h6.186v6.186z" class="D"></path><path d="M591.632 98.58h6.186a.86.86 0 0 0 .859-.859v-6.186a.86.86 0 0 0-.859-.859h-6.186a.86.86 0 0 0-.859.859v6.186a.86.86 0 0 0 .859.859zm5.327-1.717h-4.47v-4.47h4.47v4.47z" class="B C"></path><path d="M591.632 151.778v-6.186h6.186v6.186z" class="D"></path><path d="M591.632 152.637h6.186a.86.86 0 0 0 .859-.859v-6.186a.86.86 0 0 0-.859-.859h-6.186a.86.86 0 0 0-.859.859v6.186a.86.86 0 0 0 .859.859zm5.327-1.718h-4.47v-4.47h4.47v4.47z" class="B C"></path><path d="M667.934 97.722v-6.186h6.186v6.186z" class="D"></path><path d="M667.938 98.58h6.18a.86.86 0 0 0 .859-.859v-6.186a.86.86 0 0 0-.859-.859h-6.18a.86.86 0 0 0-.859.859v6.186a.86.86 0 0 0 .859.859zm5.323-1.717h-4.465v-4.47h4.465v4.47z" class="B C"></path><path d="M667.938 206.087V199.9h6.186v6.186z" class="D"></path><path d="M667.938 206.95h6.18a.86.86 0 0 0 .859-.859v-6.186a.86.86 0 0 0-.859-.858h-6.18a.86.86 0 0 0-.859.858v6.186a.86.86 0 0 0 .859.859zm5.323-1.717h-4.465v-4.47h4.465v4.47z" class="B C"></path><path d="M744.145 205.962v-6.186h6.186v6.186z" class="D"></path><path d="M744.153 206.82h6.186c.23 0 .452-.093.613-.258s.25-.387.246-.618v-6.186a.86.86 0 0 0-.859-.858h-6.186a.86.86 0 0 0-.859.858v6.203a.86.86 0 0 0 .859.859zm5.327-1.717h-4.47v-4.486h4.47v4.486z" class="B C"></path><path d="M744.145 97.593v-6.186h6.186v6.186z" class="D"></path><path d="M744.153 98.448h6.186a.86.86 0 0 0 .859-.859v-6.182a.86.86 0 0 0-.859-.859h-6.186a.86.86 0 0 0-.859.859v6.182a.86.86 0 0 0 .859.859zm5.327-1.717h-4.47v-4.465h4.47v4.465z" class="B C"></path><path d="M744.145 151.65v-6.186h6.186v6.186z" class="D"></path><g class="B"><use xlink:href="#C" x="152.521" y="-54.442" class="C"></use><path d="M670.98 91.72a.86.86 0 0 1-.858-.859V58.71a.86.86 0 0 1 .858-.859.86.86 0 0 1 .859.859v32.153a.86.86 0 0 1-.859.859z"></path></g><path d="M671.03 58.035a3.14 3.14 0 0 0 3.138-3.138 3.14 3.14 0 0 0-3.138-3.138 3.14 3.14 0 0 0-3.138 3.138 3.14 3.14 0 0 0 3.138 3.138z" class="D"></path><path d="M667.032 54.897c0 2.207 1.79 3.997 3.996 3.997s3.992-1.79 3.997-3.997a4 4 0 0 0-3.997-3.997c-2.207 0-3.996 1.79-3.996 3.997zm1.9-.873a2.28 2.28 0 0 1 4.386.872 2.28 2.28 0 0 1-3.891 1.612 2.28 2.28 0 0 1-.495-2.484z" class="B C"></path><path d="M697.477 134.32a12.14 12.14 0 0 0 12.136-12.136 12.14 12.14 0 0 0-12.136-12.136 12.14 12.14 0 0 0-12.136 12.136 12.14 12.14 0 0 0 12.136 12.136z" class="D"></path><g class="B"><path d="M685.468 127.154c2.012 4.856 6.752 8.02 12.01 8.02a13.01 13.01 0 0 0 12.99-12.99c.002-5.256-3.164-9.996-8.02-12.01s-10.446-.9-14.163 2.816-4.83 9.308-2.816 14.164zm1.587-9.29c1.747-4.214 5.86-6.96 10.422-6.96v-.01a11.29 11.29 0 0 1 11.273 11.286 11.28 11.28 0 0 1-19.253 7.973c-3.225-3.226-4.19-8.077-2.442-12.29z" class="C"></path><path d="M663.353 172.457a.43.43 0 0 1-.326-.15l-5.93-6.97a.43.43 0 0 1 .047-.605.43.43 0 0 1 .606.047l5.928 6.976a.43.43 0 0 1-.326.704zm-.373-5a.43.43 0 0 1-.326-.15l-1.46-1.717a.43.43 0 0 1-.101-.313.42.42 0 0 1 .15-.293.43.43 0 0 1 .313-.099c.113.01.22.064.292.15l1.46 1.717a.43.43 0 0 1-.326.708v-.004zm-3.598 4.91a.43.43 0 0 1-.326-.15l-3.17-3.726a.43.43 0 1 1 .653-.554l3.168 3.722a.43.43 0 0 1-.326.708z"></path></g><g class="C"><path d="M635.403 275.28v122.366c0 8.43-7.204 15.26-16.1 15.26h-188.15c-8.886 0-16.1-6.822-16.1-15.26V275.28c0-6.92 5.913-12.508 13.213-12.508h193.91c7.294-.023 13.207 5.588 13.207 12.508z" class="G"></path><path d="M431.162 413.9h188.15c9.42 0 17.085-7.29 17.096-16.254V275.28c0-7.46-6.384-13.526-14.213-13.526H428.32c-7.84 0-14.213 6.066-14.213 13.526v122.366c0 8.965 7.635 16.254 17.056 16.254zm-15.095-138.62c0-6.362 5.48-11.536 12.218-11.536h193.91c6.73 0 12.212 5.174 12.212 11.536v122.366c0 7.868-6.77 14.264-15.095 14.264h-188.15c-8.323 0-15.095-6.396-15.095-14.264V275.28z" class="B"></path><path d="M635.403 394.366v3.815c0 8.136-7.204 14.725-16.1 14.725h-188.15c-8.886 0-16.1-6.59-16.1-14.725v-3.815h220.33z" class="H"></path><path d="M431.162 413.9h188.15c9.42 0 17.085-7.05 17.085-15.72v-3.815a.99.99 0 0 0-.995-.995H415.1c-.55 0-.995.446-.995.995v3.815c0 8.67 7.635 15.72 17.056 15.72zm-15.095-15.72v-2.843h218.34v2.843c0 7.573-6.77 13.73-15.095 13.73h-188.15c-8.323 0-15.095-6.157-15.095-13.73z" class="B"></path></g><path d="M525.238 407.863c2.333 0 4.224-1.89 4.224-4.224s-1.89-4.224-4.224-4.224-4.224 1.89-4.224 4.224 1.89 4.224 4.224 4.224z" style="mix-blend-mode:soft-light" opacity=".4" class="D"></path><g class="C"><use xlink:href="#D" class="H"></use><g class="B"><use xlink:href="#D" style="mix-blend-mode:multiply" opacity=".15"></use><path d="M490.466 452.89h69.538c.812-.013 1.53-.53 1.802-1.296.32-.833.095-1.78-.57-2.377-2.092-1.83-4.957-4.554-6.725-7.1-3.61-5.196-5.174-29.035-5.174-29.273-.033-.523-.466-.93-.99-.933h-46.353c-.528-.001-.965.41-.995.938-.387 6.68-2.052 24.96-5.05 29.268-1.762 2.553-4.633 5.265-6.725 7.1a2.16 2.16 0 0 0-.569 2.377c.272.768.993 1.286 1.808 1.296zm69.48-2h-69.413c-.015-.032-.02-.067-.017-.102-.004-.03.006-.06.028-.08 2.178-1.9 5.168-4.758 7.05-7.465 3.53-5.088 5.032-24.742 5.34-29.353h44.47c.346 4.6 1.927 24.237 5.463 29.353 1.882 2.712 4.873 5.555 7.044 7.46.023.022.035.053.035.085a.29.29 0 0 1 0 .102z"></path></g></g><path d="M522.5 448.85h-3.905a.57.57 0 0 1-.569-.569.57.57 0 0 1 .569-.568h3.905a.57.57 0 0 1 .569.568.57.57 0 0 1-.569.569zm-6.588 0H491.53a.57.57 0 0 1-.569-.569.57.57 0 0 1 .569-.568h24.373a.57.57 0 0 1 .569.568.57.57 0 0 1-.569.569zM420.7 273.342a.62.62 0 0 1-.244-.051.57.57 0 0 1-.292-.326c-.05-.143-.04-.3.025-.436a9.1 9.1 0 0 1 4.235-4.253.57.57 0 0 1 .759.27.57.57 0 0 1-.27.759c-1.618.786-2.923 2.096-3.7 3.718a.57.57 0 0 1-.512.319zm202.245 107.055a.57.57 0 0 1-.433-.199l-6.15-7.237a.57.57 0 0 1 .316-.963.57.57 0 0 1 .548.229l6.152 7.232a.57.57 0 0 1-.432.938zm-.38-5.197a.57.57 0 0 1-.432-.205l-1.518-1.78a.571.571 0 1 1 .87-.74l1.512 1.786a.57.57 0 0 1-.432.938zm-3.734 5.095a.57.57 0 0 1-.433-.199l-3.286-3.866a.57.57 0 0 1 .328-.929.57.57 0 0 1 .537.19l3.286 3.866a.57.57 0 0 1-.432.938z" class="B"></path><path d="M602.366 284.076v88.69c0 4.69-3.65 8.5-8.153 8.5h-137.95c-4.497 0-8.153-3.81-8.153-8.5v-88.69c0-4.69 3.656-8.5 8.153-8.5h137.95c4.503 0 8.153 3.81 8.153 8.5z" class="D"></path><g class="C"><path d="M456.263 382.262h137.95c5.042 0 9.147-4.27 9.147-9.495v-88.69c0-5.236-4.105-9.495-9.147-9.495h-137.95c-5.043 0-9.148 4.26-9.148 9.495v88.69c0 5.237 4.105 9.495 9.148 9.495zm-7.158-98.186c0-4.14 3.213-7.505 7.158-7.505h137.95c3.945 0 7.158 3.366 7.158 7.505v88.69c0 4.14-3.213 7.505-7.158 7.505h-137.95c-3.945 0-7.158-3.366-7.158-7.505v-88.69z" class="B"></path><path d="M602.366 284.076H448.1c0-4.69 3.656-8.5 8.153-8.5h137.95c4.503 0 8.153 3.81 8.153 8.5z" class="H"></path><path d="M448.1 285.07h154.255c.55 0 .995-.446.995-.995 0-5.236-4.105-9.495-9.147-9.495h-137.95c-5.043 0-9.148 4.26-9.148 9.495 0 .55.446.995.995.995zm153.22-2H449.168a7.3 7.3 0 0 1 7.095-6.51h137.972c3.665.08 6.702 2.865 7.096 6.5z" class="B"></path></g><path d="M460.686 281.28c.565 0 1.023-.46 1.023-1.024s-.458-1.023-1.023-1.023-1.023.458-1.023 1.023.458 1.024 1.023 1.024zm8.694 0c.565 0 1.023-.46 1.023-1.024s-.458-1.023-1.023-1.023-1.024.458-1.024 1.023.46 1.024 1.024 1.024zm8.698 0c.565 0 1.023-.46 1.023-1.024s-.458-1.023-1.023-1.023-1.024.458-1.024 1.023.458 1.024 1.024 1.024z" class="B"></path><rect x="473.586" y="303.912" width="36.58" height="18.29" rx="3.047" class="D"></rect><path d="M476.634 323.055h30.484a3.9 3.9 0 0 0 3.901-3.9V306.96a3.91 3.91 0 0 0-3.901-3.9h-30.484a3.91 3.91 0 0 0-3.901 3.9v12.196a3.9 3.9 0 0 0 3.901 3.9zm-2.195-16.096a2.2 2.2 0 0 1 2.194-2.194h30.485a2.2 2.2 0 0 1 2.195 2.194v12.195c0 1.212-.983 2.195-2.195 2.195h-30.485c-1.212 0-2.194-.983-2.194-2.195V306.96z" class="B C"></path><path d="M579.846 306.965v51.254a3.05 3.05 0 0 1-3.048 3.047h-51.253c-1.684 0-3.05-1.363-3.053-3.047v-51.254c.003-1.684 1.37-3.047 3.053-3.047h51.253a3.05 3.05 0 0 1 3.048 3.047z" class="D"></path><path d="M525.545 362.12h51.253c2.153-.003 3.897-1.748 3.9-3.9v-51.254a3.9 3.9 0 0 0-3.9-3.9h-51.253c-2.155 0-3.903 1.745-3.906 3.9v51.254c.003 2.155 1.75 3.9 3.906 3.9zm-1.556-56.708c.413-.41.973-.642 1.556-.64h51.253a2.2 2.2 0 0 1 2.195 2.194v51.254a2.2 2.2 0 0 1-2.195 2.194h-51.253c-.583.002-1.143-.23-1.556-.64a2.19 2.19 0 0 1-.645-1.553v-51.254c0-.583.232-1.142.645-1.554z" class="B C"></path><rect x="473.586" y="328.166" width="36.58" height="33.1" rx="3.047" class="F"></rect><g class="C"><path d="M476.634 362.12h30.484a3.91 3.91 0 0 0 3.901-3.9v-27.006c-.004-2.153-1.748-3.897-3.9-3.9h-30.484c-2.153.003-3.897 1.747-3.9 3.9v27.006a3.91 3.91 0 0 0 3.901 3.9zm-2.195-30.906c0-1.212.982-2.194 2.194-2.194h30.485c1.212 0 2.195.982 2.195 2.194v27.006c0 1.212-.983 2.194-2.195 2.194h-30.485c-1.212 0-2.194-.982-2.194-2.194v-27.006z" class="B"></path><use xlink:href="#E" fill="#8bcbc9"></use><use xlink:href="#E" fill="#b3f3f1"></use></g><path d="M576.798 362.12h-51.253a3.91 3.91 0 0 1-3.906-3.906V344.74a.83.83 0 0 1 .25-.603l20.746-20.746a3.25 3.25 0 0 1 2.365-.944c.885.015 1.724.398 2.314 1.058l6.42 7.02c.236.22.33.554.238.864a.85.85 0 0 1-1.501.273l-6.418-7.06c-.282-.3-.68-.49-1.098-.495-.423-.012-.833.148-1.137.444l-20.495 20.467v13.145a2.2 2.2 0 0 0 .644 1.556c.413.412.972.644 1.556.644h51.253a2.2 2.2 0 0 0 2.195-2.195V332.47l-10.956 10.853c-.68.672-1.603 1.038-2.558 1.013a3.51 3.51 0 0 1-2.502-1.144l-6.782-7.46c-.265-.353-.217-.85.11-1.146s.827-.29 1.15.01l6.782 7.46a1.79 1.79 0 0 0 1.285.569c.49.006.96-.18 1.314-.518l12.405-12.29c.243-.244.6-.316.927-.182s.528.444.528.8v27.74c.014 1.04-.387 2.042-1.115 2.785a3.91 3.91 0 0 1-2.762 1.172z" class="B"></path><path d="M564.046 323.27c2.82 0 5.105-2.286 5.105-5.106s-2.285-5.105-5.105-5.105-5.106 2.286-5.106 5.105 2.286 5.106 5.106 5.106z" class="D"></path><g class="B"><path d="M558.536 320.447c.923 2.23 3.098 3.682 5.5 3.682a5.97 5.97 0 0 0 5.964-5.964c0-2.412-1.453-4.587-3.682-5.5s-4.793-.413-6.5 1.293-2.216 4.27-1.293 6.5zm1.575-3.92a4.26 4.26 0 0 1 3.935-2.63v.017a4.26 4.26 0 0 1 4.259 4.235 4.26 4.26 0 0 1-7.268 3.019 4.26 4.26 0 0 1-.926-4.641z" class="C"></path><path d="M501.893 338.684h-20.035c-.47 0-.853-.382-.853-.853s.382-.853.853-.853h20.035c.47 0 .853.382.853.853s-.382.853-.853.853zm-.386 6.886H481.47c-.47 0-.852-.382-.852-.853a.85.85 0 0 1 .852-.853h20.036c.47 0 .852.382.852.853a.85.85 0 0 1-.852.853zm.387 6.884h-6.533c-.47 0-.853-.382-.853-.853s.382-.853.853-.853h6.533c.47 0 .852.382.852.853a.85.85 0 0 1-.852.853zm-10.404 0h-9.63c-.47 0-.853-.382-.853-.853s.382-.853.853-.853h9.63c.47 0 .853.382.853.853s-.382.853-.853.853zm17.846-30.64c-.085.001-.17-.02-.245-.057L474.17 305.4c-.188-.084-.316-.263-.334-.467a.57.57 0 0 1 .817-.562l34.92 16.368a.57.57 0 0 1-.239 1.086z"></path><path d="M474.03 321.815c-.22-.001-.42-.13-.512-.33a.57.57 0 0 1 .273-.756l24.595-11.53a.57.57 0 0 1 .746.278c.132.28.015.615-.263.75l-24.595 11.53a.56.56 0 0 1-.244.057zm28.54-13.377a.57.57 0 0 1-.245-1.086l6.385-3a.57.57 0 0 1 .839.562.57.57 0 0 1-.361.467l-6.38 3c-.074.037-.156.057-.24.057z"></path></g><rect x="431.944" y="454.603" width="183.449" height="19.815" rx="1.32" class="F"></rect><path d="M433.264 475.406h180.8c1.274-.003 2.306-1.035 2.308-2.31v-17.18c-.002-1.274-1.034-2.306-2.308-2.31h-180.8c-1.274.003-2.306 1.035-2.308 2.31v17.18c.002 1.274 1.034 2.306 2.308 2.31zm-.33-19.488c0-.183.148-.332.33-.332h180.81c.088 0 .173.035.235.097s.097.147.097.235v17.18c0 .088-.035.172-.097.235s-.147.097-.235.097h-180.81c-.183 0-.33-.15-.33-.332v-17.18z" class="B C"></path><path d="M514.555 474.417h18.826v126.358h-18.826z" class="F"></path><g class="C"><path d="M514.555 601.764h18.85a.99.99 0 0 0 .989-.988v-126.36a.99.99 0 0 0-.989-.989h-18.85a.99.99 0 0 0-.989.989v126.36a.99.99 0 0 0 .989.988zm17.862-1.977h-16.85l-.024-124.38h16.873v124.38z" class="B"></path><path d="M514.486 474.417l-39.422 126.36h-19.706l39.422-126.36h19.706z" class="F"></path><path d="M455.358 601.764h19.71c.438.007.828-.274.96-.692L515.45 474.71a.99.99 0 0 0-.944-1.281h-19.71a.99.99 0 0 0-.939.693l-39.442 126.363a.99.99 0 0 0 .944 1.28zm18.985-1.977h-17.64l38.804-124.38h17.63l-38.794 124.38z" class="B"></path><path d="M592.44 600.776h-19.706l-39.43-126.36h19.72l39.416 126.36z" class="F"></path><path d="M572.73 601.764h19.71a.99.99 0 0 0 .944-1.28L553.967 474.12a.99.99 0 0 0-.944-.693h-19.72a.99.99 0 0 0-.944 1.286l39.426 126.358a.99.99 0 0 0 .945.692zm18.366-1.977H573.46l-38.813-124.38h17.65l38.8 124.38z" class="B"></path></g><path d="M516.597 464.322c-.273 0-.494-.22-.494-.494s.22-.495.494-.495l7.065-.346c.273-.017.508.2.526.463s-.2.508-.462.526l-7.13.346zm-11.97.228c-11.044 0-25.42-.598-35.595-3.193-19.28-4.9-36.732 1.068-36.906 1.127-.248.064-.504-.073-.6-.315s.03-.5.263-.614c.173-.065 17.887-6.14 37.474-1.157 13.116 3.342 33.272 3.337 44.12 3.04.273 0 .494.22.494.494s-.22.495-.494.495l-8.766.123zM461.8 469c-.08.001-.16-.018-.232-.054-5.122-2.734-12.44-.806-12.508-.786a.5.5 0 0 1-.376-.047c-.114-.065-.197-.173-.232-.3s-.018-.262.047-.376a.5.5 0 0 1 .299-.233c.317-.084 7.762-2.05 13.24.866.2.107.3.337.244.557s-.255.373-.482.372zm132.968-1.53c-2.225 0-4.36-.07-6.308-.168a147.67 147.67 0 0 1-15.702-1.651.5.5 0 0 1 .168-.989c.272.05 27.567 4.672 42.3-1.127.255-.1.543.027.642.282s-.026.543-.282.643c-5.942 2.353-13.832 3-20.808 3zM480.22 545.465c-.093 0-.184-.026-.262-.075-.112-.07-.2-.18-.22-.308s-.007-.263.062-.374c.164-.257 16.122-26.034 15.3-44.06-.7-15.726 6.813-26.43 6.887-26.533a.5.5 0 0 1 .693-.113c.22.16.27.466.114.687-.074.104-7.416 10.545-6.704 25.916.836 18.33-15.3 44.365-15.45 44.627-.1.145-.25.233-.42.233zm45.3 55.805c-.195-.001-.37-.118-.45-.297-.08-.168-1.858-4.28-2.966-11.736-1-6.862-1.597-17.956 1.36-31.838 3.268-15.326-1.844-32.842-1.9-33.015s-.006-.353.116-.48.302-.182.474-.14.3.17.36.34c.054.178 5.24 17.912 1.918 33.504-2.927 13.715-2.353 24.665-1.36 31.443 1.078 7.337 2.873 11.5 2.892 11.53.053.12.056.257.008.38a.49.49 0 0 1-.265.272.53.53 0 0 1-.188.04zm-47-11.064c-.242.004-.45-.168-.495-.406 0-.098-1.695-9.946 0-27.34a.5.5 0 0 1 .544-.445c.13.014.25.08.333.18s.12.233.107.363c-1.676 17.254 0 26.974 0 27.067a.5.5 0 0 1-.08.37c-.074.107-.2.18-.32.204l-.1.005zm47-105.876c-.274 0-.495-.222-.495-.495v-9.393c0-.273.22-.494.495-.494a.49.49 0 0 1 .494.494v9.393c0 .273-.22.495-.494.495zm24.57-16.102h-10.496c-.273 0-.494-.222-.494-.495s.22-.494.494-.494H550.1c.273 0 .494.22.494.494s-.22.495-.494.495zm29.18-9.023c-9.66 0-18.02-4.123-18.104-4.162-.242-.124-.34-.42-.218-.663s.42-.344.663-.222c.08.04 8.236 4.058 17.66 4.058s15.76-3.994 15.82-4.034c.1-.07.245-.093.373-.064a.45.45 0 0 1 .3.218c.147.23.08.534-.15.682-.262.168-6.664 4.187-16.354 4.187zM463.056 601.27h-.134a.5.5 0 0 1-.3-.232.49.49 0 0 1-.047-.376l2.146-7.87c.078-.254.344-.4.6-.332a.5.5 0 0 1 .353.6l-2.146 7.87a.49.49 0 0 1-.474.35zm64.724-79.392c-.26-.016-.465-.233-.465-.495a16.34 16.34 0 0 0-3.85-11.316c-.138-.124-.195-.315-.147-.494s.2-.317.372-.357a.49.49 0 0 1 .487.17c2.877 3.333 4.355 7.65 4.123 12.048-.026.263-.255.46-.52.445zm50.614 34.34a.5.5 0 0 1-.321-.118c-7.188-6.16-9.116-12.795-11.554-21.2-2.298-7.9-4.904-16.903-12.67-28.26-16.1-23.552-8.513-32.204-8.182-32.56.186-.2.5-.213.7-.027s.213.5.027.7c-.074.084-7.33 8.524 8.27 31.33 7.856 11.5 10.486 20.552 12.805 28.546 2.392 8.24 4.28 14.752 11.247 20.72.157.135.214.353.142.547s-.257.323-.464.323zm-15.524-51.504c-.074 0-7.203-.084-8.43-7.416-.865-5.2 2.23-9.823 2.363-10.02.154-.227.463-.285.7-.13a.5.5 0 0 1 .131.69c-.035.044-3.006 4.504-2.205 9.3 1.083 6.516 7.193 6.615 7.45 6.615.273 0 .494.22.494.494s-.22.495-.494.495v-.025zm16.943 96.557c-.248.002-.46-.18-.494-.425-1.3-9.314-3.515-17.566-6.62-24.53-.092-.245.02-.52.26-.626s.52-.01.64.22c3.144 7.055 5.398 15.395 6.7 24.798.038.27-.15.52-.42.56l-.064.005zm-8.013-27.502c-.186 0-.355-.103-.44-.267-.94-1.937-2.067-3.777-3.367-5.493-.152-.2-.115-.502.084-.668s.492-.15.672.035c1.353 1.77 2.522 3.67 3.5 5.676.122.242.027.537-.213.662-.07.036-.148.055-.227.055z" class="B"></path><path d="M59.368 87.873h176.918v248.99H59.368z" class="D"></path><path d="M59.353 337.85h176.933a.99.99 0 0 0 .974-.988V87.874a.99.99 0 0 0-.989-.989H59.353a.99.99 0 0 0-.989.989v249a.99.99 0 0 0 .989.988zm175.945-1.977H60.357l-.015-247.012h174.956v247.012z" class="B C"></path><rect x="73.235" y="107.48" width="75.052" height="75.052" rx="1.711" fill="#ffb3c4"></rect><g class="B"><path d="M74.94 183.51h71.635c1.5-.003 2.697-1.21 2.7-2.7v-71.636c-.003-1.49-1.2-2.696-2.7-2.7H74.94a2.7 2.7 0 0 0-2.694 2.699v71.636a2.7 2.7 0 0 0 2.694 2.699zm-.717-74.335a.72.72 0 0 1 .717-.721h71.635a.72.72 0 0 1 .722.721v71.636a.72.72 0 0 1-.722.722H74.94a.72.72 0 0 1-.717-.722v-71.636z" class="C"></path><path d="M147.97 182.7a.49.49 0 0 1-.35-.143L73.344 108.3c-.192-.193-.192-.504 0-.697a.5.5 0 0 1 .35-.146c.13 0 .258.053.35.146l74.295 74.276a.49.49 0 0 1 .104.534c-.075.183-.252.303-.45.306h-.025zm-16.378-58.02c-.13-.002-.255-.055-.346-.148-.192-.193-.192-.505 0-.698l16.23-16.23c.193-.192.505-.192.697 0s.192.504 0 .697l-16.23 16.23a.5.5 0 0 1-.351.148z"></path><path d="M73.55 182.7c-.13.001-.258-.05-.35-.143-.192-.193-.192-.504 0-.697l54.1-54.1c.12-.14.31-.203.49-.16a.49.49 0 0 1 .365.365c.044.18-.018.37-.16.49l-54.105 54.1c-.093.092-.22.144-.35.143z"></path></g><rect x="160.993" y="107.48" width="62.574" height="12.177" rx="1.374" class="D"></rect><path d="M162.372 120.646h59.82a2.37 2.37 0 0 0 2.363-2.363v-9.423a2.37 2.37 0 0 0-2.363-2.368h-59.82a2.37 2.37 0 0 0-2.363 2.368v9.423a2.37 2.37 0 0 0 2.363 2.363zm-.274-12.062c.072-.073.17-.115.274-.115h59.82c.103 0 .202.042.274.115s.113.173.112.276v9.423c0 .102-.04.2-.113.272s-.17.113-.273.113h-59.82c-.213 0-.386-.172-.386-.385v-9.423c-.001-.103.04-.203.112-.276z" class="B C"></path><rect x="160.993" y="128.111" width="62.574" height="12.177" rx="1.374" class="D"></rect><g class="C"><path d="M162.372 141.27h59.82c1.305 0 2.363-1.058 2.363-2.363v-9.423c0-1.305-1.058-2.363-2.363-2.363h-59.82c-1.305 0-2.363 1.058-2.363 2.363v9.423c0 1.305 1.058 2.363 2.363 2.363zm-.386-11.785c0-.213.173-.386.386-.386h59.82c.213 0 .385.173.385.386v9.422c0 .103-.04.2-.112.273a.39.39 0 0 1-.273.113h-59.82a.39.39 0 0 1-.273-.113c-.072-.072-.113-.17-.113-.273v-9.422z" class="B"></path><use xlink:href="#F" class="F"></use><path d="M175.018 171.98c2.893 6.98 9.707 11.532 17.264 11.53 10.31-.014 18.667-8.37 18.677-18.683 0-7.556-4.552-14.37-11.534-17.26a18.68 18.68 0 0 0-24.407 24.414zm1.826-13.543c2.587-6.242 8.68-10.312 15.438-10.3v.015a16.73 16.73 0 0 1 16.7 16.685c.002 6.758-4.068 12.85-10.3 15.438s-13.43 1.158-18.208-3.62-6.207-11.965-3.62-18.208z" class="B"></path></g><rect x="73.621" y="196.573" width="149.337" height="12.177" rx="1.478" class="D"></rect><path d="M75.1 209.738h146.376a2.47 2.47 0 0 0 2.471-2.472v-9.215a2.47 2.47 0 0 0-2.471-2.472H75.1c-1.365 0-2.472 1.107-2.472 2.472v9.215c0 1.365 1.107 2.472 2.472 2.472zm-.494-11.682c0-.273.22-.495.494-.495h146.376c.273 0 .494.222.494.495v9.215c0 .273-.22.494-.494.494H75.1c-.273 0-.494-.22-.494-.494v-9.215z" class="B C"></path><rect x="73.621" y="222.083" width="149.337" height="12.177" rx="1.478" class="D"></rect><g class="C"><path d="M75.1 235.248h146.376a2.47 2.47 0 0 0 1.749-.726c.464-.464.724-1.094.722-1.75v-9.215a2.47 2.47 0 0 0-2.471-2.472H75.1c-1.365 0-2.472 1.107-2.472 2.472v9.22c0 1.365 1.107 2.472 2.472 2.472zm-.494-11.692c0-.273.22-.494.494-.494h146.376c.273 0 .494.22.494.494v9.215c0 .273-.22.495-.494.495H75.1c-.273 0-.494-.222-.494-.495v-9.215z" class="B"></path><use xlink:href="#F" x="-100.932" y="100.438" fill="#cfddff"></use><path d="M72.667 265.286a18.68 18.68 0 0 0 18.678 18.678c10.3-.014 18.664-8.368 18.678-18.678a18.68 18.68 0 0 0-18.678-18.677 18.68 18.68 0 0 0-18.678 18.677zm1.978 0c0-9.223 7.477-16.7 16.7-16.7 9.22.01 16.69 7.482 16.7 16.7 0 9.223-7.477 16.7-16.7 16.7s-16.7-7.477-16.7-16.7z" class="B"></path><path d="M219.33 254.603a17.71 17.71 0 0 1-26.686 23.169c-6.565-6.625-6.867-17.208-.69-24.195s16.718-7.986 24.098-2.282" fill="#cfddff"></path></g><path d="M205.225 283.964a18.68 18.68 0 0 1-18.678-18.678 18.68 18.68 0 0 1 18.678-18.677 18.5 18.5 0 0 1 11.435 3.905.99.99 0 0 1-1.212 1.563 16.53 16.53 0 0 0-10.223-3.49c-9.223.003-16.697 7.48-16.696 16.704s7.48 16.697 16.702 16.697 16.7-7.478 16.7-16.7c.012-3.643-1.18-7.2-3.392-10.085a.99.99 0 0 1 .19-1.387.99.99 0 0 1 1.387.191 18.68 18.68 0 0 1-14.89 29.959zm-52.885-7.9c-.146-.001-.283-.067-.376-.178l-6.734-7.9c-.114-.135-.15-.32-.1-.486s.202-.3.376-.322.35.03.466.165l6.738 7.9c.126.147.155.355.073.53s-.26.288-.453.286v.005zm-.42-5.696c-.145 0-.282-.063-.376-.173l-1.66-1.977c-.085-.1-.128-.23-.117-.36s.072-.252.17-.337a.49.49 0 0 1 .36-.115c.13.01.252.074.336.174l1.66 1.953c.126.146.154.353.074.528s-.256.288-.45.288v.02zm-4.073 5.582c-.145 0-.282-.063-.376-.173l-3.6-4.237c-.176-.2-.15-.52.06-.697s.52-.15.697.06l3.6 4.232c.126.148.155.355.073.53s-.26.287-.453.285z" class="B"></path><path d="M54.32 82.826h10.095V92.92H54.32z" class="D"></path><path d="M54.32 93.9h10.095a.99.99 0 0 0 .989-.989V82.826a.99.99 0 0 0-.989-.989H54.32a.99.99 0 0 0-.989.989V92.92a.99.99 0 0 0 .989.989zm9.106-1.977H55.31v-8.118h8.118v8.118z" class="B C"></path><path d="M231.24 82.826h10.095V92.92H231.24z" class="D"></path><path d="M231.24 93.9h10.095a.99.99 0 0 0 .989-.989V82.826a.99.99 0 0 0-.989-.989H231.24a.99.99 0 0 0-.989.989V92.92a.99.99 0 0 0 .989.989zm9.106-1.977h-8.117v-8.118h8.117v8.118z" class="B C"></path><path d="M142.987 82.826h10.095V92.92h-10.095z" class="D"></path><path d="M142.987 93.9h10.1a.99.99 0 0 0 .989-.989V82.826a.99.99 0 0 0-.989-.989h-10.1a.99.99 0 0 0-.988.989V92.92a.99.99 0 0 0 .988.989zm9.112-1.977h-8.123v-8.118h8.123v8.118z" class="B C"></path><path d="M231.24 207.395h10.095V217.5H231.24z" class="D"></path><path d="M231.24 218.483h10.095a.99.99 0 0 0 .989-.988v-10.1a.99.99 0 0 0-.989-.989H231.24a.99.99 0 0 0-.989.989v10.1a.99.99 0 0 0 .989.988zm9.106-1.977h-8.117v-8.123h8.117v8.123z" class="B C"></path><path d="M54.32 207.395h10.095V217.5H54.32z" class="D"></path><path d="M54.32 218.483h10.095a.99.99 0 0 0 .989-.988v-10.1a.99.99 0 0 0-.989-.989H54.32a.99.99 0 0 0-.989.989v10.1a.99.99 0 0 0 .989.988zm9.106-1.977H55.31v-8.123h8.118v8.123z" class="B C"></path><path d="M54.528 331.815h10.095V341.9H54.528z" class="D"></path><path d="M54.528 342.9h10.1a.99.99 0 0 0 .989-.979v-10.095a.99.99 0 0 0-.989-.989h-10.1a.99.99 0 0 0-.989.989V341.9a.99.99 0 0 0 .989.989zm9.11-1.978h-8.123v-8.108h8.123v8.108z" class="B C"></path><path d="M231.446 331.815h10.095V341.9h-10.095z" class="D"></path><path d="M231.446 342.9h10.095a.99.99 0 0 0 .989-.979v-10.095a.99.99 0 0 0-.989-.989h-10.095a.99.99 0 0 0-.988.989V341.9a.99.99 0 0 0 .988.989zm9.107-1.978h-8.118v-8.108h8.118v8.108z" class="B C"></path><path d="M143.2 331.815h10.095V341.9H143.2z" class="D"></path><g class="B"><path d="M143.2 342.9h10.095a.99.99 0 0 0 .989-.979v-10.095a.99.99 0 0 0-.989-.989H143.2a.99.99 0 0 0-.989.989V341.9a.99.99 0 0 0 .989.989zm9.106-1.978h-8.117v-8.108h8.117v8.108z" class="C"></path><path d="M148.035 83.815a.99.99 0 0 1-.989-.989V46.533a.99.99 0 0 1 .989-.989.99.99 0 0 1 .988.989v36.292a.99.99 0 0 1-.988.989z"></path></g><path d="M147.827 46.534c2.367 0 4.286-1.92 4.286-4.286s-1.92-4.286-4.286-4.286-4.286 1.92-4.286 4.286 1.92 4.286 4.286 4.286z" class="D"></path><g class="C"><path d="M142.965 44.266a5.28 5.28 0 0 0 4.882 3.256c2.913-.005 5.272-2.367 5.275-5.28a5.28 5.28 0 0 0-9.015-3.732 5.28 5.28 0 0 0-1.142 5.756zm1.827-3.285a3.3 3.3 0 0 1 6.352 1.261 3.3 3.3 0 0 1-5.637 2.34 3.3 3.3 0 0 1-.715-3.601z" class="B"></path><path d="M156.894 545.495h80.623c1.29 0 2.333 1.044 2.333 2.333v53.986h-85.3v-53.986a2.33 2.33 0 0 1 .687-1.653c.44-.438 1.036-.683 1.657-.68z" fill="#ffd87a"></path><path d="M154.56 602.798h85.285a.99.99 0 0 0 .7-.29c.185-.185.29-.436.29-.7v-53.98c-.003-1.832-1.485-3.317-3.317-3.322h-80.623a3.33 3.33 0 0 0-3.323 3.322v53.98a.99.99 0 0 0 .989.989zm84.297-1.977H155.55v-52.993c0-.743.602-1.345 1.345-1.345h80.623c.74.003 1.34.604 1.34 1.345v52.993z" class="B"></path><path d="M180.19 443.944s15.236-2.768 12.235 27.003-.464 74.548-.464 74.548h-15.692s-24.467-100.4 3.92-101.55z" fill="#8cc387"></path><path d="M176.278 546.483h15.692c.272.002.533-.11.72-.306s.284-.465.267-.737c-.034-.445-2.506-45.038.46-74.394 1.26-12.503-.465-21.026-5.132-25.332a10.24 10.24 0 0 0-8.186-2.754c-3.56.16-6.52 1.775-8.805 4.806-14.827 19.686 3.243 94.777 4.02 97.966a.99.99 0 0 0 .964.751zm14.65-1.977H177.05c-1.888-8.05-17.708-77.623-4.152-95.573 1.947-2.58 4.355-3.896 7.36-4.02h.133c2.433-.264 4.857.572 6.6 2.28 2.838 2.665 5.933 8.934 4.45 23.65-2.724 26.998-.875 66.742-.524 73.663z" class="B"></path><path d="M212.18 473.577c3.37 4.578 5.932 14.698.9 37.08l-5.785 34.84h-13.323s-11.865-63.84 6.802-74.276a8.82 8.82 0 0 1 11.406 2.358z" fill="#8cc387"></path><path d="M193.972 546.483h13.324a.99.99 0 0 0 .988-.825l5.735-34.824c2.882-12.716 5.003-29.59-1.073-37.845a9.8 9.8 0 0 0-12.666-2.63c-19.073 10.66-7.79 72.683-7.297 75.32a.99.99 0 0 0 .989.805zm12.483-1.977h-11.642a260.55 260.55 0 0 1-3.451-32.293c-.826-22.178 2.6-36.06 9.887-40.13a7.82 7.82 0 0 1 10.111 2.077c3.11 4.232 5.77 13.95.73 36.267-.002.018-.002.037 0 .055l-5.636 34.023z" class="B"></path><path d="M189.65 545.495c-1.152-5.3-.228-16.617-1.844-41.528s-13.388-22.85-13.388-22.85-14.307 1.616-7.846 29.08c6.25 26.573 9.695 35.313 9.695 35.313l13.383-.014z" fill="#a3da9e"></path><path d="M176.268 546.483h13.363c.303.007.592-.125.784-.358s.27-.542.205-.838c-.54-2.473-.612-6.507-.72-12.597l-.002-.1c-.114-6.703-.272-15.884-1.102-28.703-.702-10.812-3.357-18.095-7.886-21.654-3.228-2.536-6.24-2.16-6.63-2.11s-4.198.648-7.1 4.77c-3.767 5.35-4.296 13.93-1.572 25.515 6.2 26.335 9.596 35.09 9.74 35.45.15.377.514.624.92.623zm12.202-1.977h-11.515c-.87-2.428-4.162-12.206-9.417-34.537-3.23-13.66-1.113-20.522 1.22-23.874 2.472-3.55 5.645-4 5.774-4h.05c.118-.017 2.504-.358 5.17 1.765 2.768 2.2 6.244 7.5 7.064 20.176.825 12.697.987 21.8 1.105 28.468l.003.137c.094 5.562.158 9.24.544 11.865z" class="B"></path><path d="M206.85 545.495c.89-55.672 18.786-50.808 18.786-50.808s19.775.86-4.153 50.808H206.85z" fill="#a3da9e"></path><path d="M206.85 546.483h14.653a.99.99 0 0 0 .915-.544c7.8-16.274 15.835-37.78 9.828-47.8-2.2-3.633-5.4-4.226-6.282-4.392l-.145-.028c-.613-.128-3.614-.583-7.104 2.042-10.09 7.58-12.558 31.23-12.854 49.735a.99.99 0 0 0 .989.988zm14.03-1.977H207.86c.633-31.81 6.823-43.184 11.95-47.1 3.066-2.353 5.508-1.78 5.602-1.755a.91.91 0 0 0 .207.03c.177.015 2.99.25 4.944 3.525 3.006 5.107 3.748 17.13-9.68 45.3z" class="B"></path></g><path d="M186.497 495.073c-.273 0-.495-.22-.495-.494.584-16.444.9-25.5.297-33.737a.5.5 0 0 1 .46-.53c.27-.02.508.184.53.455.613 8.3.292 17.367-.302 33.845-.018.258-.23.458-.5.46zm.033-37.043c-.256.001-.47-.194-.494-.45-.9-9.67-2.175-12.943-2.185-12.972-.065-.165-.038-.35.07-.5s.285-.2.46-.183.323.142.388.307c.055.133 1.33 3.436 2.25 13.244.026.272-.173.513-.445.54l-.045.005zm-6.9 24.876c-.264.001-.48-.206-.494-.47-.692-16.2 1.34-38.374 1.364-38.597.026-.27.264-.467.534-.445s.473.263.45.534c0 .223-2.047 22.322-1.36 38.463 0 .273-.22.494-.494.494v.02zm-6.64-1.35c-.273 0-.494-.222-.494-.495 0-.138-.45-13.96 0-21.327.687-11.272 4.256-15.44 4.4-15.613.183-.2.484-.203.683-.028s.224.475.058.68c-.044.054-3.5 4.148-4.167 15.02-.445 7.322 0 21.095 0 21.234 0 .273-.222.494-.495.494l.005.035zM180.9 546c-.228.008-.432-.14-.494-.36-.07-.267-7.277-26.543-8.815-37.306-2.887-20.2-1-25.856-.92-26.083.046-.18.2-.32.373-.36a.52.52 0 0 1 .5.17c.128.144.143.345.066.515-.025.074-1.864 5.8 1 25.614 1.527 10.703 8.716 36.92 8.8 37.187.035.127.018.262-.047.376s-.173.198-.3.232l-.134.015zm4.208 0c-.23.008-.435-.144-.495-.366-3.728-13.942-6.653-28.086-8.76-42.363a.5.5 0 0 1 .682-.532.5.5 0 0 1 .307.393 377.2 377.2 0 0 0 8.735 42.25c.07.263-.087.533-.35.603-.038.01-.078.015-.118.015zm-9.305-46.463c-.25.002-.464-.185-.494-.435-1.483-11.74-1.384-17.936-1.384-18 0-.273.22-.494.494-.494s.494.22.494.494c0 .06-.084 6.194 1.38 17.857a.49.49 0 0 1-.1.366c-.08.104-.2.172-.33.188l-.06.024zM188.642 546c-.25.002-.46-.182-.494-.43-5.75-45.75-10.58-63.592-10.624-63.775-.066-.175-.027-.373.1-.5s.322-.2.5-.14.315.203.348.387c.05.173 4.894 18.065 10.66 63.903.032.27-.16.516-.43.55l-.06.015z" class="B"></path><g class="C"><path d="M180.297 545.495c-.306-12.642-3.05-18.92-6-22-1.657-1.76-4.166-2.43-6.48-1.734a6.38 6.38 0 0 0-4.447 5.021c-.653 3.46-.124 9.942 4.825 18.713h12.102z" fill="#b5ecb0"></path><path d="M168.195 546.483h12.103c.265.002.52-.103.707-.29s.285-.45.276-.717c-.266-10.965-2.377-18.594-6.278-22.658-1.896-2.037-4.787-2.816-7.45-2.007-2.675.806-4.67 3.045-5.162 5.794-.445 2.403-.865 9.097 4.944 19.385a.99.99 0 0 0 .86.494zm11.084-1.977h-10.505c-5.19-9.428-4.835-15.4-4.435-17.54.34-2.018 1.796-3.67 3.756-4.26s4.085-.018 5.484 1.477c3.382 3.515 5.35 10.54 5.7 20.324z" class="B"></path></g><path d="M172.24 546c-.227.01-.43-.138-.494-.356 0-.044-1.33-4.573-3.075-10.224-2.53-8.182-2.56-12.952-2.56-13.15 0-.273.22-.495.494-.495s.495.222.495.495c0 .05.034 4.835 2.516 12.854l3.08 10.238c.076.262-.074.537-.336.613-.038.014-.078.022-.12.025zm3.9 0c-.238.005-.445-.16-.495-.4-.025-.108-2.185-10.535-3.56-15.765-1.34-5.132-3.46-8-3.46-8.014-.107-.142-.13-.33-.06-.492s.22-.277.395-.3a.49.49 0 0 1 .457.193c.1.123 2.245 3.03 3.644 8.364 1.374 5.25 3.544 15.707 3.57 15.82a.49.49 0 0 1-.386.582c-.034.005-.07.005-.103 0zm19.587 0c-.273 0-.494-.22-.494-.494-2.902-66.776 6.62-75.12 7.03-75.443.212-.14.497-.096.658.102s.142.487-.04.665c-.124.108-9.512 8.933-6.66 74.65 0 .273-.22.494-.494.494v.025zm4.637 0h-.1a.5.5 0 0 1-.318-.207.49.49 0 0 1-.077-.37c2.24-12.063 5.635-74.676 5.67-75.304 0-.136.055-.265.154-.36a.5.5 0 0 1 .365-.136.5.5 0 0 1 .343.162c.088.098.134.226.127.357-.035.633-3.436 63.3-5.7 75.438-.037.24-.242.418-.485.42zm3.743.493a.42.42 0 0 1-.154-.024c-.257-.087-.396-.365-.3-.623.04-.12 3.955-12.058 6.714-41.672 2.664-28.86-1.187-32.564-1.227-32.6-.205-.172-.236-.477-.07-.687.16-.202.45-.247.663-.104.455.326 4.34 4 1.616 33.484-2.748 29.752-6.723 41.775-6.763 41.9-.068.2-.257.337-.47.336z" class="B"></path><g class="C"><path d="M195.885 491.49s-9.23-.094-12.23 16.156c-3.39 18.36 3.693 37.85 3.693 37.85h15.232s13.155-54.184-6.694-54.006z" fill="#8ab99e"></path><path d="M187.347 546.483h15.232a.99.99 0 0 0 .959-.756c1.605-6.963 2.808-14.013 3.604-21.115 1.637-15.148.43-25.42-3.59-30.473a9.22 9.22 0 0 0-7.564-3.639h-.11c-.603 0-10.12.277-13.2 16.967-3.4 18.41 3.44 37.563 3.738 38.37a.99.99 0 0 0 .929.647zm14.446-1.977h-13.74c-1.166-3.515-6.392-20.645-3.416-36.703 2.793-15.098 10.896-15.326 11.257-15.326 2.388-.1 4.672.98 6.11 2.888 8.192 10.302 1.028 43.703-.213 49.14z" class="B"></path></g><path d="M210.756 546h-.084c-.27-.045-.45-.3-.405-.57.04-.247 4.113-24.417 6.194-31.966 4.667-16.913 8.83-19.123 9.003-19.207a.49.49 0 0 1 .494.03c.148.098.233.266.223.442s-.114.335-.272.414c-.08.045-4.025 2.388-8.494 18.584-2.07 7.505-6.13 31.64-6.175 31.868-.042.234-.246.404-.484.405zm5.16.493c-.046.005-.092.005-.138 0a.49.49 0 0 1-.298-.235c-.064-.115-.08-.25-.043-.378l8.34-28.066a.5.5 0 0 1 .362-.35.49.49 0 0 1 .48.148c.12.133.16.323.1.493l-8.33 28.046c-.067.205-.26.343-.475.34zm9.557-32.04c-.046.007-.093.007-.138 0-.263-.077-.413-.35-.337-.613 3.46-11.8 3.214-17.66 3.2-17.72-.014-.273.197-.505.47-.52s.505.197.52.47c0 .242.262 6.076-3.248 18.045-.07.203-.26.338-.475.336zM192.815 546c-.245.003-.455-.174-.494-.415-1.354-9.863-1.865-19.823-1.528-29.772.608-15.276 2.967-24.076 2.967-24.165.046-.17.18-.303.352-.348a.5.5 0 0 1 .602.611c0 .084-2.35 8.8-2.967 23.943a173.1 173.1 0 0 0 1.518 29.578c.02.13-.013.263-.1.368a.49.49 0 0 1-.324.196l-.035.005zm5.987 0c-.135 0-.265-.055-.358-.153s-.143-.23-.136-.366c0-.242 1.33-24.225 1.577-33.697s-1.483-19.647-1.483-19.775a.5.5 0 0 1 .174-.47c.138-.115.326-.147.494-.084a.5.5 0 0 1 .32.386c0 .104 1.755 10.4 1.484 19.943s-1.563 33.484-1.577 33.727c-.003.27-.224.5-.495.5z" class="B"></path><g class="C"><path d="M198.802 545.495s-9.71-28.5 5.438-28.62c14.787-.11 5.24 28.62 5.24 28.62h-10.68z" fill="#b5ecb0"></path><path d="M198.802 546.483h10.67c.42.004.798-.26.94-.657.277-.79 6.264-19.142.77-26.697-1.562-2.145-3.87-3.238-6.862-3.238h-.094c-3.164 0-5.58 1.187-7.198 3.46-5.463 7.678.58 25.703.84 26.464.137.4.512.667.934.667zm9.942-1.977h-9.22a69.73 69.73 0 0 1-2.195-9.23c-1.127-6.882-.663-12 1.315-14.792 1.24-1.75 3.07-2.63 5.596-2.63 2.373-.015 4.138.776 5.34 2.427 1.992 2.73 2.457 7.86 1.344 14.832-.52 3.175-1.248 6.313-2.18 9.393z" class="B"></path></g><path d="M202.58 546c-.234.006-.44-.153-.494-.38 0-.06-1.38-6.1-1.755-16.64-.37-10.352 1.4-12.082 1.755-12.32.22-.147.518-.093.673.122s.113.515-.095.678c-.074.07-1.7 1.775-1.345 11.485.37 10.42 1.716 16.393 1.73 16.453a.49.49 0 0 1-.371.593l-.1.01zm3.48 0h-.065c-.27-.036-.46-.284-.425-.554 0-.064.9-6.66 1.513-15 .613-8.256-.692-13.032-.707-13.077-.06-.256.093-.513.346-.586s.518.066.603.315c.06.202 1.375 4.973.742 13.417s-1.508 14.994-1.518 15.064c-.037.242-.245.42-.5.42zm-36.066-95.56c-.13 0-.253-.052-.346-.143l-2.3-2.274a.51.51 0 0 1-.162-.5.48.48 0 0 1 .362-.368c.18-.045.37.016.493.156l2.294 2.274a.5.5 0 0 1 0 .697c-.093.094-.22.148-.352.148zm1.993-1.448c-.136.001-.267-.055-.36-.153l-1.977-2.087c-.122-.128-.167-.3-.117-.48a.49.49 0 0 1 .36-.34c.173-.04.353.012.474.14l1.978 2.086c.136.143.174.354.097.535s-.256.3-.453.3zm-2.2 3.998a.49.49 0 0 1-.291-.093l-2.072-1.508c-.106-.078-.178-.194-.198-.324s.012-.262.1-.368a.5.5 0 0 1 .324-.199.46.46 0 0 1 .368.1l2.072 1.508c.106.077.178.193.198.323a.5.5 0 0 1-.089.369c-.094.128-.243.203-.4.202zm4.118-6.084a.49.49 0 0 1-.35-.15l-1.908-1.933a.49.49 0 0 1-.126-.478.5.5 0 0 1 .35-.35.49.49 0 0 1 .477.13l1.908 1.938a.49.49 0 0 1 .103.537c-.077.184-.255.303-.454.304zm29.327 23.68c-.273 0-.494-.22-.494-.494v-2.6c0-.273.22-.495.494-.495s.494.222.494.495v2.6c0 .273-.22.494-.494.494zm2.205-.706c-.274 0-.495-.22-.495-.494v-3.535c0-.273.22-.494.495-.494a.49.49 0 0 1 .494.494v3.535c0 .273-.22.494-.494.494zm2.536 1.17c-.273 0-.495-.22-.495-.494V467.5c0-.273.222-.494.495-.494s.494.22.494.494v3.046c0 .273-.22.494-.494.494zm2.012.96c-.273 0-.495-.22-.495-.494v-2.714c0-.273.222-.495.495-.495s.494.222.494.495v2.714c0 .273-.22.494-.494.494zm-9.185-.286c-.273 0-.494-.222-.494-.495v-2.437c0-.273.22-.495.494-.495s.495.222.495.495v2.442c0 .273-.222.494-.495.494v-.004zm-35.892 22.138c-.123-.001-.24-.046-.332-.13l-1.755-1.592c-.183-.186-.2-.484-.013-.678s.472-.217.676-.053l1.755 1.592a.5.5 0 0 1 .13.543c-.072.2-.256.316-.46.317zm.702-2.388c-.12.001-.235-.04-.326-.12l-2.472-2.16a.5.5 0 0 1-.169-.342c-.008-.132.037-.26.125-.36.18-.205.492-.225.697-.045l2.472 2.16c.204.18.224.492.044.697-.094.107-.23.168-.37.168zm-1.227 4.296a.47.47 0 0 1-.237-.064l-1.23-.668a.5.5 0 0 1 .495-.87l1.23.673a.5.5 0 0 1 .238.295.49.49 0 0 1-.041.377c-.1.165-.266.265-.455.257zm63.567.282c-.058 0-.115-.01-.168-.03a.49.49 0 0 1-.292-.638l1.112-2.966c.095-.255.378-.385.633-.292.123.046.224.14.278.26a.5.5 0 0 1 .014.38l-1.113 2.966c-.072.194-.258.322-.464.322zm-1.685-1.492h-.114c-.264-.064-.428-.33-.366-.593l.495-2.116a.49.49 0 0 1 .223-.308c.112-.068.247-.1.375-.058.264.063.428.328.366.593l-.495 2.116c-.058.218-.258.37-.484.366zm3.663 2c-.073 0-.145-.015-.212-.045a.49.49 0 0 1-.238-.657l1.642-3.505a.49.49 0 0 1 .406-.314c.184-.02.363.063.466.216s.1.35.023.513l-1.642 3.5c-.082.172-.255.28-.445.282zm-70.943 76.323c-.217.002-.4-.138-.475-.344s.01-.432.188-.556l5.36-3.787c.224-.158.534-.105.692.12s.105.534-.118.692l-5.364 3.787a.49.49 0 0 1-.282.089zm9.66-.435c-.217.002-.4-.138-.475-.344s.01-.432.188-.556l5.36-3.787c.224-.158.534-.105.692.12s.106.534-.118.692l-5.364 3.787a.49.49 0 0 1-.282.089zm10.15.475c-.216-.001-.406-.14-.47-.347s.012-.43.2-.553l5.36-3.787c.222-.134.5-.074.66.138s.1.504-.1.668l-5.36 3.787c-.083.06-.183.093-.286.094zm9.942-.218c-.214-.001-.403-.14-.468-.343a.5.5 0 0 1 .18-.552l5.36-3.786a.49.49 0 0 1 .492-.047c.16.073.27.227.287.403s-.062.347-.206.45l-5.364 3.787a.49.49 0 0 1-.281.089zm9.67-.4c-.214-.001-.403-.14-.468-.344s.008-.426.18-.55l5.36-3.787a.5.5 0 0 1 .371-.085.5.5 0 0 1 .321.204c.156.222.103.53-.12.687l-5.364 3.787a.49.49 0 0 1-.281.089zm10.14.475c-.16.001-.312-.076-.405-.207a.49.49 0 0 1 .119-.691l5.364-3.787c.222-.156.53-.103.687.118.077.108.107.24.085.37s-.096.246-.204.322l-5.36 3.786a.49.49 0 0 1-.287.089zm9.537-.085c-.16.001-.312-.076-.406-.207a.5.5 0 0 1-.085-.371.49.49 0 0 1 .204-.32l5.36-3.787c.145-.103.333-.12.494-.046a.5.5 0 0 1 .287.406.5.5 0 0 1-.208.451l-5.36 3.786a.49.49 0 0 1-.286.089zm10.737.085c-.16.001-.312-.076-.406-.207a.49.49 0 0 1 .119-.691l5.36-3.787c.224-.16.534-.105.692.118a.5.5 0 0 1-.118.693l-5.36 3.787a.5.5 0 0 1-.287.088z" class="B"></path><use xlink:href="#G" class="B"></use><use xlink:href="#G" x="8.533" y="0.321" class="B"></use><use xlink:href="#G" x="18.994" y="0.321" class="B"></use><use xlink:href="#G" x="28.882" y="0.321" class="B"></use><use xlink:href="#G" x="38.374" y="0.321" class="B"></use><use xlink:href="#G" x="48.662" y="0.238" class="B"></use><use xlink:href="#G" x="58.667" y="0.238" class="B"></use><use xlink:href="#G" x="69.214" y="0.238" class="B"></use><use xlink:href="#G" x="78.867" y="0.238" class="B"></use><path d="M232.766 595.867c-.145 0-.282-.063-.376-.173l-6.165-7.248a.49.49 0 0 1-.115-.36.5.5 0 0 1 .174-.336c.1-.086.23-.127.36-.117a.49.49 0 0 1 .337.172l6.16 7.252c.175.207.15.515-.054.692-.1.077-.204.12-.32.12zm-.386-5.187a.49.49 0 0 1-.375-.178l-1.523-1.785a.49.49 0 0 1-.115-.36.5.5 0 0 1 .174-.336c.1-.086.23-.127.36-.117a.49.49 0 0 1 .337.172l1.518 1.8c.125.147.154.353.073.528s-.256.288-.45.288zm-3.742 5.083c-.145 0-.282-.063-.376-.173l-3.293-3.87c-.177-.207-.153-.52.055-.697s.52-.153.697.054l3.292 3.876c.123.147.15.35.07.525a.49.49 0 0 1-.444.286z" class="B"></path><defs><path id="B" d="M348.953 200.032c-1.88 2.472-8.242 9.32-21.867 9.32-12.463 0-18.786-7.218-20.492-9.482l1.142-.32 3.46-.915.272-.064.123-.03a1.22 1.22 0 0 1 .178-.044l.1-.025.312-.08.217-.054.628-.154c.193-.054.38-.094.554-.138 0 0 4.578 5.507 13.664 5.507 9.888 0 13.878-5.18 14.12-5.507l.306.08 2.087.524 3.515.92a53.79 53.79 0 0 1 1.681.464z"></path><path id="C" d="M591.632 206.95h6.186a.86.86 0 0 0 .859-.859v-6.186a.86.86 0 0 0-.859-.858h-6.186a.86.86 0 0 0-.859.858v6.186a.86.86 0 0 0 .859.859zm5.327-1.717h-4.47v-4.47h4.47v4.47z"></path><path id="D" d="M560.004 451.896h-69.538c-.9 0-1.302-1.296-.57-1.927 2.06-1.808 5.043-4.628 6.885-7.283 3.8-5.486 5.225-29.78 5.225-29.78h46.353s1.535 24.294 5.35 29.78c1.842 2.655 4.82 5.475 6.885 7.283.71.63.313 1.927-.59 1.927z"></path><path id="E" d="M556.826 335.2l6.782 7.46c.487.535 1.17.847 1.893.865s1.42-.26 1.933-.768l12.412-12.286v27.74a3.05 3.05 0 0 1-3.048 3.047h-51.253c-1.686 0-3.053-1.367-3.053-3.053V344.74l20.746-20.746a2.38 2.38 0 0 1 1.74-.695c.65.016 1.267.298 1.705.78l6.42 7.016"></path><path id="F" d="M192.282 182.537c9.77 0 17.69-7.92 17.69-17.69s-7.92-17.69-17.69-17.69-17.69 7.92-17.69 17.69 7.92 17.69 17.69 17.69z"></path><path id="G" d="M157.363 570.802a.74.74 0 1 0 0-1.483.74.74 0 1 0 0 1.483z"></path></defs></svg> 